<?xml version="1.0" encoding="utf-8"?>
<!-- Generator: Adobe Illustrator 24.0.0, SVG Export Plug-In . SVG Version: 6.00 Build 0)  -->
<svg version="1.1" id="Layer_1" xmlns="http://www.w3.org/2000/svg" xmlns:xlink="http://www.w3.org/1999/xlink" x="0px" y="0px"
	 viewBox="0 0 180 110" style="enable-background:new 0 0 180 110;" xml:space="preserve">
<style type="text/css">
	.st0{fill:#FBB034;}
	.st1{fill:#F68B1F;}
	.st2{fill:#FDD457;}
	.st3{fill:#F78F1E;}
	.st4{fill:#E6661F;}
	.st5{fill:#FFFFFF;}
	.st6{fill:#B8DAEE;}
	.st7{fill:#0D1A2A;}
	.st8{opacity:0.4;}
	.st9{opacity:0.7;}
	.st10{opacity:0.5;}
	.st11{fill:#ECF0F9;}
	.st12{fill:#E2F4FD;}
	.st13{fill:#C7EAFB;}
	.st14{fill:#ACE1FA;}
	.st15{fill:#405161;}
	.st16{opacity:0.6;}
	.st17{fill:#122C3D;}
	.st18{fill:#5C6E79;}
	.st19{fill:#310F32;}
	.st20{opacity:0.8;}
	.st21{fill:#424761;}
	.st22{fill:#5F6B82;}
	.st23{fill:#7E8C9B;}
	.st24{clip-path:url(#SVGID_2_);fill:#49C7ED;}
	.st25{clip-path:url(#SVGID_2_);fill:#4AC6ED;}
	.st26{clip-path:url(#SVGID_2_);fill:#4AC5EC;}
	.st27{clip-path:url(#SVGID_2_);fill:#4AC4EB;}
	.st28{clip-path:url(#SVGID_2_);fill:#4AC3EB;}
	.st29{clip-path:url(#SVGID_2_);fill:#4AC2EA;}
	.st30{clip-path:url(#SVGID_2_);fill:#49C1EA;}
	.st31{clip-path:url(#SVGID_2_);fill:#49C1E9;}
	.st32{clip-path:url(#SVGID_2_);fill:#49C0E9;}
	.st33{clip-path:url(#SVGID_2_);fill:#49BFE9;}
	.st34{clip-path:url(#SVGID_2_);fill:#48BFE8;}
	.st35{clip-path:url(#SVGID_2_);fill:#48BEE8;}
	.st36{clip-path:url(#SVGID_2_);fill:#48BDE8;}
	.st37{clip-path:url(#SVGID_2_);fill:#47BDE7;}
	.st38{clip-path:url(#SVGID_2_);fill:#47BCE7;}
	.st39{clip-path:url(#SVGID_2_);fill:#47BBE6;}
	.st40{clip-path:url(#SVGID_2_);fill:#47BAE6;}
	.st41{clip-path:url(#SVGID_2_);fill:#46BAE6;}
	.st42{clip-path:url(#SVGID_2_);fill:#46B9E5;}
	.st43{clip-path:url(#SVGID_2_);fill:#46B8E5;}
	.st44{clip-path:url(#SVGID_2_);fill:#45B8E5;}
	.st45{clip-path:url(#SVGID_2_);fill:#45B7E4;}
	.st46{clip-path:url(#SVGID_2_);fill:#44B6E4;}
	.st47{clip-path:url(#SVGID_2_);fill:#44B5E3;}
	.st48{clip-path:url(#SVGID_2_);fill:#44B4E3;}
	.st49{clip-path:url(#SVGID_2_);fill:#43B4E2;}
	.st50{clip-path:url(#SVGID_2_);fill:#43B3E2;}
	.st51{clip-path:url(#SVGID_2_);fill:#43B2E2;}
	.st52{clip-path:url(#SVGID_2_);fill:#43B2E1;}
	.st53{clip-path:url(#SVGID_2_);fill:#42B1E1;}
	.st54{clip-path:url(#SVGID_2_);fill:#42B0E1;}
	.st55{clip-path:url(#SVGID_2_);fill:#42B0E0;}
	.st56{clip-path:url(#SVGID_2_);fill:#42AFE0;}
	.st57{clip-path:url(#SVGID_2_);fill:#41AFE0;}
	.st58{clip-path:url(#SVGID_2_);fill:#41AEDF;}
	.st59{clip-path:url(#SVGID_2_);fill:#41ADDF;}
	.st60{clip-path:url(#SVGID_2_);fill:#40ADDF;}
	.st61{clip-path:url(#SVGID_2_);fill:#40ACDE;}
	.st62{clip-path:url(#SVGID_2_);fill:#40ABDE;}
	.st63{clip-path:url(#SVGID_2_);fill:#3FAADD;}
	.st64{clip-path:url(#SVGID_2_);fill:#3FA9DD;}
	.st65{clip-path:url(#SVGID_2_);fill:#3FA9DC;}
	.st66{clip-path:url(#SVGID_2_);fill:#3FA8DC;}
	.st67{clip-path:url(#SVGID_2_);fill:#3EA7DC;}
	.st68{clip-path:url(#SVGID_2_);fill:#3EA7DB;}
	.st69{clip-path:url(#SVGID_2_);fill:#3EA6DB;}
	.st70{clip-path:url(#SVGID_2_);fill:#3EA5DB;}
	.st71{clip-path:url(#SVGID_2_);fill:#3DA5DA;}
	.st72{clip-path:url(#SVGID_2_);fill:#3DA4DA;}
	.st73{clip-path:url(#SVGID_2_);fill:#3CA3D9;}
	.st74{clip-path:url(#SVGID_2_);fill:#3CA2D9;}
	.st75{clip-path:url(#SVGID_2_);fill:#3CA1D8;}
	.st76{clip-path:url(#SVGID_2_);fill:#3BA0D8;}
	.st77{clip-path:url(#SVGID_2_);fill:#3B9FD7;}
	.st78{clip-path:url(#SVGID_2_);fill:#3B9ED7;}
	.st79{clip-path:url(#SVGID_2_);fill:#3A9ED7;}
	.st80{clip-path:url(#SVGID_2_);fill:#3A9DD6;}
	.st81{clip-path:url(#SVGID_2_);fill:#3A9CD6;}
	.st82{clip-path:url(#SVGID_2_);fill:#399BD5;}
	.st83{clip-path:url(#SVGID_2_);fill:#399AD5;}
	.st84{clip-path:url(#SVGID_2_);fill:#3999D4;}
	.st85{clip-path:url(#SVGID_2_);fill:#3899D4;}
	.st86{clip-path:url(#SVGID_2_);fill:#3898D4;}
	.st87{clip-path:url(#SVGID_2_);fill:#3897D3;}
	.st88{fill:#007BC4;}
	.st89{clip-path:url(#SVGID_4_);}
	.st90{fill:#FFC626;}
	.st91{fill:#92D1F1;}
	.st92{fill:#C8E6F7;}
	.st93{fill:#5EC1EE;}
	.st94{fill:#1B7CBE;}
	.st95{fill:#239FCB;}
	.st96{opacity:0.35;}
	.st97{opacity:0.2;}
	.st98{fill:#727A83;}
</style>
<g>
	<path class="st0" d="M57.65,86.74c0,2.27-0.45,4.48-1.3,6.53c-0.84,2.06-2.1,3.94-3.7,5.54h-26c-3.2-3.2-5-7.54-5-12.07
		c0-2.91,0.59-5.79,1.72-8.45c0.14-0.31,0.27-0.62,0.42-0.92l9.86-20.56l4,9c1.22-0.65,2.84-0.99,4.44-1l3.56-8l9.87,20.56
		C56.92,80.29,57.65,83.49,57.65,86.74z"/>
</g>
<g>
	<path class="st1" d="M38.59,65.38c0.16,0.52,0.63,0.93,1.25,0.93h2.81v-2.37l-0.1-0.03l0,0c-0.28,0.74-0.96,1.25-1.75,1.31
		L38.59,65.38z"/>
</g>
<g>
	<g>
		<path class="st1" d="M43.65,97.81L43.65,97.81c-0.55,0-1-0.45-1-1v-8c0-0.55,0.45-1,1-1l0,0c0.55,0,1,0.45,1,1v8
			C44.65,97.37,44.21,97.81,43.65,97.81z"/>
	</g>
</g>
<g>
	<path class="st2" d="M48.3,94.43l-1.07,2.84c-0.34,0.93-1.22,1.54-2.21,1.54c-1.3,0-2.36-1.06-2.36-2.37v-2.01
		c0.78-0.67,2.04-0.67,2.82,0C46.25,95.1,47.51,95.1,48.3,94.43z"/>
</g>
<g>
	<path class="st0" d="M42.66,94.43v2.01c0,0.33,0.07,0.64,0.19,0.92c0.18,0.26,0.47,0.45,0.81,0.45c0.55,0,1-0.45,1-1v-2.8
		C43.97,93.83,43.2,93.97,42.66,94.43z"/>
</g>
<g>
	<path class="st2" d="M42.66,94.43v2.01c0,1.31-1.06,2.37-2.36,2.37c-0.99,0-1.87-0.61-2.21-1.54l-1.07-2.84
		c0.79,0.67,2.05,0.67,2.82,0C40.62,93.76,41.88,93.76,42.66,94.43z"/>
</g>
<g>
	<path class="st3" d="M21.65,86.74v-3.93c-0.09-0.92-0.39-1.74-1.06-2.27c-0.67-0.53-1.5-0.75-2.27-0.65
		c-0.77,0.09-1.44,0.5-1.86,1.06c-0.43,0.56-0.48,1.23-0.48,1.86v1.34c0,1.47-1.19,2.66-2.66,2.66c-0.73,0-1.4-0.3-1.88-0.78
		c-0.48-0.49-0.78-1.16-0.78-1.89l0.01-1.33c0-2,1.01-3.92,2.44-5.21c1.43-1.3,3.36-1.97,5.21-1.87c1.85,0.09,3.62,0.95,4.8,2.28
		l0.25,0.28C22.24,80.95,21.65,83.83,21.65,86.74z"/>
</g>
<g>
	<path class="st0" d="M15.98,82.81v1.34c0,1.47-1.19,2.66-2.66,2.66c-0.73,0-1.4-0.3-1.88-0.78c-0.48-0.49-0.78-1.16-0.78-1.89
		l0.01-1.33c0.73-0.67,1.92-0.67,2.65,0S15.24,83.48,15.98,82.81z"/>
</g>
<g>
	<g>
		<path class="st4" d="M13.32,86.31c-0.55,0-1-0.45-1-1s0.45-1,1-1c0.04,0,0.07-0.01,0.1-0.04c0.02-0.02,0.05-0.06,0.05-0.12v-1.34
			c0-0.89,0.1-2.2,0.99-3.37c0.85-1.12,2.14-1.86,3.55-2.03c1.48-0.18,2.98,0.25,4.14,1.18c1.21,0.96,2,2.41,2.16,3.97l0.01,0.12
			c0.05,0.55-0.35,1.04-0.9,1.09c-0.56,0.05-1.04-0.35-1.09-0.9l-0.01-0.11c-0.11-1.03-0.62-1.98-1.41-2.6
			c-0.75-0.6-1.71-0.88-2.65-0.76c-0.88,0.11-1.68,0.57-2.2,1.26c-0.51,0.68-0.58,1.48-0.58,2.16v1.34c0,0.63-0.28,1.23-0.76,1.64
			C14.33,86.13,13.83,86.31,13.32,86.31z"/>
	</g>
</g>
<g>
	<path class="st3" d="M15.48,84.16v-1.02c-0.65,0.29-1.43,0.22-2-0.21v1.23c0,0.06-0.04,0.1-0.05,0.12
		c-0.03,0.03-0.06,0.04-0.1,0.04c-0.55,0-1,0.45-1,1s0.45,1,1,1c0.51,0,1.01-0.18,1.4-0.52C15.2,85.39,15.48,84.79,15.48,84.16z"/>
</g>
<g>
	<path class="st1" d="M31.99,82.28c-3.09-4.01-3.82-9.36-2.2-14.16l0.01-0.02c0.15-0.7-0.83-1.04-1.14-0.39l-4.86,9.66
		c-0.15,0.3-0.28,0.61-0.42,0.92c-1.13,2.66-1.72,5.54-1.72,8.45c0,4.53,1.8,8.87,5,12.07h11.13c1.44,0,2.49-1.37,2.11-2.77
		l-1.18-4.32c-0.7-2.56-2.12-4.85-4.1-6.61l0,0C33.7,84.3,32.8,83.34,31.99,82.28z"/>
</g>
<g>
	<path class="st0" d="M39.52,94.66c-0.77,0.44-1.81,0.36-2.5-0.22l1.07,2.84c0.18,0.49,0.51,0.88,0.92,1.15
		c0.74-0.5,1.15-1.43,0.89-2.38L39.52,94.66z"/>
</g>
<g>
	<path class="st4" d="M38.32,98.46l-1.5-3.55c-0.14-0.34-0.65-0.32-0.74,0.04c-0.3,1.21-1.08,2.24-2.14,2.86
		c-0.31,0.18-0.2,0.64,0.16,0.64H38.32z"/>
</g>
<g>
	<path class="st1" d="M46.8,98.46l0.99-2.34c0.1-0.23,0.43-0.21,0.49,0.03c0.2,0.8,0.71,1.48,1.41,1.89c0.2,0.12,0.13,0.42-0.1,0.42
		H46.8z"/>
</g>
<g>
	<path class="st1" d="M46.65,65.81l-0.62-5.58c-0.1-0.94-1.39-1.14-1.78-0.28l-2.09,4.7L46.65,65.81z"/>
</g>
<g>
	<path class="st5" d="M55.52,77.37l-5.55-11.56c-1.33,0-2.44,0.72-3.04,1.75c-0.42,0.73,0.1,1.7,0.94,1.75
		c0.66,0.05,1.37,0.3,2.16,0.94c0.95,0.76,1.63,1.86,1.62,3.09c-0.01,1.13-0.49,2.16-1.26,2.88c-1.18,1.11-1.62,2.8-1.37,4.4
		c0.31,2,0.63,4.45,0.63,6.12l0,0.07c0,3.55,2.9,6.46,6.46,6.46h0.24c0.85-2.05,1.3-4.26,1.3-6.53
		C57.65,83.49,56.92,80.29,55.52,77.37z"/>
</g>
<g>
	<circle class="st5" cx="47.66" cy="73.31" r="3.5"/>
</g>
<g>
	<path class="st1" d="M34.83,76.64c-0.13,0-0.26-0.05-0.35-0.15c-1.75-1.75-1.75-4.61,0-6.36c0.2-0.2,0.51-0.2,0.71,0
		s0.2,0.51,0,0.71c-1.36,1.36-1.36,3.58,0,4.95c0.2,0.2,0.2,0.51,0,0.71C35.08,76.59,34.96,76.64,34.83,76.64z"/>
</g>
<g>
	<circle class="st5" cx="37.66" cy="73.31" r="3.5"/>
</g>
<g>
	<path class="st1" d="M44.83,76.64c-0.13,0-0.26-0.05-0.35-0.15c-1.75-1.75-1.75-4.61,0-6.36c0.2-0.2,0.51-0.2,0.71,0
		s0.2,0.51,0,0.71c-1.36,1.36-1.36,3.58,0,4.95c0.2,0.2,0.2,0.51,0,0.71C45.08,76.59,44.96,76.64,44.83,76.64z"/>
</g>
<g>
	<g>
		<path class="st6" d="M35.54,75.93c-0.13,0-0.26-0.05-0.35-0.15c-0.66-0.66-1.02-1.54-1.02-2.47s0.36-1.81,1.02-2.47
			c0.2-0.2,0.51-0.2,0.71,0s0.2,0.51,0,0.71c-0.47,0.47-0.73,1.1-0.73,1.77s0.26,1.3,0.73,1.77c0.2,0.2,0.2,0.51,0,0.71
			C35.79,75.89,35.66,75.93,35.54,75.93z"/>
	</g>
</g>
<g>
	<g>
		<path class="st6" d="M45.54,75.93c-0.13,0-0.26-0.05-0.35-0.15c-0.66-0.66-1.02-1.54-1.02-2.47s0.36-1.81,1.02-2.47
			c0.2-0.2,0.51-0.2,0.71,0s0.2,0.51,0,0.71c-0.47,0.47-0.73,1.1-0.73,1.77s0.26,1.3,0.73,1.77c0.2,0.2,0.2,0.51,0,0.71
			C45.79,75.89,45.66,75.93,45.54,75.93z"/>
	</g>
</g>
<g>
	<g>
		<path class="st7" d="M13.32,87.31c-0.85,0-1.64-0.33-2.24-0.93c-0.6-0.6-0.92-1.39-0.92-2.24l0.01-1.33
			c0-2.03,0.98-4.12,2.61-5.58c1.49-1.36,3.58-2.11,5.57-1.99c1.95,0.09,3.87,1.01,5.15,2.44c0.18,0.21,0.16,0.52-0.04,0.71
			s-0.52,0.16-0.71-0.04c-1.1-1.24-2.76-2.03-4.45-2.11c-1.74-0.09-3.55,0.55-4.85,1.74c-1.43,1.28-2.28,3.09-2.28,4.84l-0.01,1.34
			c0,0.58,0.22,1.12,0.63,1.53c0.41,0.41,0.95,0.63,1.53,0.63c1.19,0,2.16-0.97,2.16-2.16v-1.34c0-0.69,0.07-1.48,0.58-2.17
			c0.52-0.69,1.32-1.14,2.2-1.25c0.93-0.12,1.89,0.16,2.65,0.76c0.79,0.63,1.31,1.58,1.42,2.61l-0.17,4
			c-0.01,0.28-0.23,0.49-0.52,0.48c-0.28-0.01-0.49-0.25-0.48-0.52l0.17-3.93c-0.08-0.69-0.46-1.39-1.04-1.86
			c-0.54-0.43-1.23-0.63-1.9-0.55c-0.61,0.08-1.17,0.39-1.53,0.87c-0.32,0.42-0.38,0.93-0.38,1.56v1.34
			C16.48,85.9,15.06,87.31,13.32,87.31z"/>
	</g>
</g>
<g>
	<path class="st7" d="M45.02,99.31c-1.58,0-2.86-1.28-2.86-2.86v-9.64c0-0.28,0.22-0.5,0.5-0.5s0.5,0.22,0.5,0.5v9.64
		c0,1.03,0.84,1.86,1.86,1.86c0.77,0,1.47-0.49,1.74-1.21l2.43-6.47c0.1-0.26,0.38-0.39,0.64-0.29c0.26,0.1,0.39,0.38,0.29,0.64
		l-2.43,6.47C47.28,98.57,46.2,99.31,45.02,99.31z"/>
</g>
<g class="st8">
	<path class="st5" d="M46.29,97.43c-0.06,0-0.12-0.01-0.18-0.03c-0.26-0.1-0.39-0.38-0.29-0.64l2.42-6.47
		c0.1-0.26,0.38-0.39,0.64-0.29c0.26,0.1,0.39,0.38,0.29,0.64l-2.42,6.47C46.69,97.3,46.49,97.43,46.29,97.43z"/>
</g>
<g class="st9">
	<path class="st5" d="M46.71,96.31c-0.06,0-0.12-0.01-0.18-0.03c-0.26-0.1-0.39-0.38-0.29-0.64l1.5-4c0.1-0.26,0.38-0.39,0.64-0.29
		c0.26,0.1,0.39,0.38,0.29,0.64l-1.5,4C47.1,96.19,46.91,96.31,46.71,96.31z"/>
</g>
<g>
	<path class="st7" d="M40.29,99.31c-1.19,0-2.26-0.75-2.68-1.86l-2.43-6.47c-0.1-0.26,0.03-0.55,0.29-0.64
		c0.26-0.1,0.55,0.03,0.64,0.29l2.43,6.47c0.27,0.72,0.97,1.21,1.74,1.21c1.03,0,1.86-0.83,1.86-1.86v-9.64c0-0.28,0.22-0.5,0.5-0.5
		s0.5,0.22,0.5,0.5v9.64C43.15,98.03,41.87,99.31,40.29,99.31z"/>
</g>
<g>
	<path class="st7" d="M42.65,81.31c-0.28,0-0.5-0.22-0.5-0.5v-2c0-0.28,0.22-0.5,0.5-0.5s0.5,0.22,0.5,0.5v2
		C43.15,81.09,42.93,81.31,42.65,81.31z"/>
</g>
<g class="st10">
	<path class="st5" d="M41.65,80.31c-0.28,0-0.5-0.22-0.5-0.5v-2c0-0.28,0.22-0.5,0.5-0.5s0.5,0.22,0.5,0.5v2
		C42.15,80.09,41.93,80.31,41.65,80.31z"/>
</g>
<g>
	<path class="st1" d="M43.65,80.31c-0.28,0-0.5-0.22-0.5-0.5v-2c0-0.28,0.22-0.5,0.5-0.5s0.5,0.22,0.5,0.5v2
		C44.15,80.09,43.93,80.31,43.65,80.31z"/>
</g>
<g>
	<polygon class="st7" points="42.65,78.81 40.65,76.81 44.65,76.81 	"/>
	<path class="st7" d="M42.65,79.31c-0.13,0-0.26-0.05-0.35-0.15l-2-2c-0.14-0.14-0.19-0.36-0.11-0.54c0.08-0.19,0.26-0.31,0.46-0.31
		h4c0.2,0,0.38,0.12,0.46,0.31c0.08,0.19,0.03,0.4-0.11,0.54l-2,2C42.91,79.26,42.78,79.31,42.65,79.31z M41.86,77.31l0.79,0.79
		l0.79-0.79H41.86z"/>
</g>
<g>
	<path class="st7" d="M46.15,73.31c0,0.86,0.23,1.66,0.64,2.37c0.42,0.74,1.3,0.74,1.72,0c0.41-0.71,0.64-1.51,0.64-2.37
		s-0.23-1.66-0.64-2.37c-0.42-0.74-1.3-0.74-1.72,0C46.39,71.66,46.15,72.46,46.15,73.31z"/>
</g>
<g>
	<path class="st7" d="M36.15,73.31c0,0.86,0.23,1.66,0.64,2.37c0.42,0.74,1.3,0.74,1.72,0c0.41-0.71,0.64-1.51,0.64-2.37
		s-0.23-1.66-0.64-2.37c-0.42-0.74-1.3-0.74-1.72,0C36.39,71.66,36.15,72.46,36.15,73.31z"/>
</g>
<g>
	<path class="st7" d="M46.65,66.31c-0.08,0-0.16-0.02-0.24-0.06c-2.35-1.26-6.18-1.26-8.53,0c-0.24,0.13-0.55,0.04-0.68-0.2
		c-0.13-0.24-0.04-0.55,0.2-0.68c2.61-1.4,6.86-1.4,9.47,0c0.24,0.13,0.33,0.43,0.2,0.68C47,66.22,46.83,66.31,46.65,66.31z"/>
</g>
<g>
	<path class="st7" d="M52.65,99.31h-26c-0.13,0-0.26-0.05-0.35-0.15c-3.32-3.32-5.15-7.73-5.15-12.42c0-3.3,0.75-6.61,2.18-9.59
		L33.2,56.6c0.08-0.17,0.28-0.28,0.46-0.28c0.19,0,0.37,0.12,0.45,0.3l4,9c0.11,0.25,0,0.55-0.25,0.66c-0.25,0.11-0.55,0-0.66-0.25
		L33.64,58l-9.4,19.58c-1.36,2.84-2.08,6.01-2.08,9.16c0,4.36,1.67,8.46,4.71,11.57h25.58c3.04-3.11,4.71-7.21,4.71-11.57
		c0-3.15-0.72-6.32-2.08-9.16L45.67,58l-3.12,7.02c-0.11,0.25-0.41,0.37-0.66,0.25c-0.25-0.11-0.37-0.41-0.25-0.66l3.56-8.01
		c0.08-0.18,0.25-0.29,0.45-0.3c0.19,0,0.37,0.11,0.46,0.28l9.87,20.56c1.43,2.97,2.18,6.29,2.18,9.59c0,4.69-1.83,9.11-5.15,12.42
		C52.91,99.26,52.79,99.31,52.65,99.31z"/>
</g>
<g class="st10">
	<path class="st5" d="M36.56,66.31c-0.19,0-0.37-0.11-0.46-0.3l-2.67-6c-0.11-0.25,0-0.55,0.25-0.66c0.25-0.11,0.55,0,0.66,0.25
		l2.67,6c0.11,0.25,0,0.55-0.25,0.66C36.7,66.3,36.63,66.31,36.56,66.31z"/>
</g>
<g class="st9">
	<path class="st5" d="M36.12,65.31c-0.19,0-0.37-0.11-0.46-0.3l-1.33-3c-0.11-0.25,0-0.55,0.25-0.66c0.25-0.11,0.55,0,0.66,0.25
		l1.33,3c0.11,0.25,0,0.55-0.25,0.66C36.25,65.3,36.18,65.31,36.12,65.31z"/>
</g>
<g class="st10">
	<path class="st5" d="M56.36,90.31c-0.03,0-0.06,0-0.1-0.01c-0.27-0.05-0.45-0.31-0.4-0.59c0.19-0.97,0.28-1.97,0.28-2.98
		c0-3-0.69-6.02-1.98-8.72c-0.12-0.25-0.01-0.55,0.23-0.67c0.25-0.12,0.55-0.01,0.67,0.23c1.36,2.84,2.08,6.01,2.08,9.16
		c0,1.07-0.1,2.13-0.3,3.17C56.81,90.15,56.6,90.31,56.36,90.31z"/>
</g>
<g>
	<path class="st5" d="M56.65,87.24c-0.28,0-0.5-0.22-0.5-0.5c0-1.61-0.2-3.23-0.58-4.81c-0.07-0.27,0.1-0.54,0.37-0.6
		c0.27-0.07,0.54,0.1,0.6,0.37c0.41,1.66,0.61,3.36,0.61,5.05C57.15,87.02,56.93,87.24,56.65,87.24z"/>
</g>
<g>
	<path class="st11" d="M33.03,62.36l-2.17,4.18c-0.19,0.36,0.23,0.73,0.61,0.53c1.07-0.55,2.28-0.93,3.47-1.04
		c0.3-0.03,0.49-0.3,0.37-0.55c-0.37-0.77-1.06-2.21-1.5-3.11C33.67,62.06,33.19,62.05,33.03,62.36z"/>
</g>
<g>
	<g>
		<path class="st12" d="M152.73,98.81c9.22-9.33,14.92-22.16,14.92-36.32c0-28.54-23.14-51.68-51.68-51.68S64.29,33.95,64.29,62.5
			c0,14.16,5.7,26.98,14.92,36.32H152.73z"/>
	</g>
	<g>
		<path class="st13" d="M83.25,98.81h65.45c9.92-8.95,16.17-21.9,16.17-36.32c0-27-21.89-48.89-48.89-48.89S67.08,35.5,67.08,62.5
			C67.08,76.91,73.32,89.87,83.25,98.81z"/>
	</g>
	<g>
		<path class="st14" d="M87.6,98.81h56.74c10.79-8.44,17.73-21.56,17.73-36.32c0-25.46-20.64-46.1-46.1-46.1s-46.1,20.64-46.1,46.1
			C69.88,77.25,76.82,90.38,87.6,98.81z"/>
	</g>
</g>
<path class="st7" d="M157.65,92.31c-0.28,0-0.5,0.22-0.5,0.5v0h-8.9c-1.06-0.32-2.16-0.5-3.31-0.5c-0.28,0-0.5,0.22-0.5,0.5
	s0.22,0.5,0.5,0.5c3.95,0,7.5,2.19,9.26,5.72c0.08,0.17,0.26,0.28,0.45,0.28h3c0.28,0,0.5-0.22,0.5-0.5v-6
	C158.15,92.54,157.93,92.31,157.65,92.31z"/>
<path class="st7" d="M102.36,92.31c-1.14,0-2.25,0.18-3.31,0.5h-8.9v0c0-0.28-0.22-0.5-0.5-0.5s-0.5,0.22-0.5,0.5v6
	c0,0.28,0.22,0.5,0.5,0.5h3c0.19,0,0.36-0.11,0.45-0.28c1.77-3.53,5.31-5.72,9.26-5.72c0.28,0,0.5-0.22,0.5-0.5
	S102.64,92.31,102.36,92.31z"/>
<g>
	<path class="st15" d="M142.65,92.81h15v-52c0-1.1-0.9-2-2-2h-13h-1c2.21,0,4,1.79,4,4v46c0,2.21-1.79,4-4,4H142.65z"/>
</g>
<g class="st16">
	<rect x="153.65" y="83.81" class="st17" width="4" height="1"/>
</g>
<g class="st16">
	<polygon class="st18" points="157.65,40.81 143.65,40.81 143.65,38.81 156.65,38.81 	"/>
</g>
<g>
	<polygon class="st7" points="157.65,92.81 145.65,92.81 145.65,89.81 157.65,89.81 157.65,86.81 	"/>
</g>
<g>
	<path class="st18" d="M145.65,92.81h-72V40.7c0-1.04,0.85-1.89,1.89-1.89h68.22c1.04,0,1.89,0.85,1.89,1.89V92.81z"/>
</g>
<g>
	<path class="st19" d="M145.65,89.31c-0.28,0-0.5-0.22-0.5-0.5v-46c0-0.28,0.22-0.5,0.5-0.5s0.5,0.22,0.5,0.5v46
		C146.15,89.09,145.93,89.31,145.65,89.31z"/>
</g>
<g>
	<path class="st7" d="M157.65,93.31h-12c-0.28,0-0.5-0.22-0.5-0.5s0.22-0.5,0.5-0.5h11.5v-51.5c0-0.83-0.67-1.5-1.5-1.5h-14
		c-0.28,0-0.5-0.22-0.5-0.5s0.22-0.5,0.5-0.5h14c1.38,0,2.5,1.12,2.5,2.5v52C158.15,93.09,157.93,93.31,157.65,93.31z"/>
</g>
<g class="st20">
	<circle class="st17" cx="151.65" cy="77.81" r="1"/>
</g>
<g>
	<path class="st21" d="M124.65,38.81h-18v-1c0-1.66,1.34-3,3-3h12c1.66,0,3,1.34,3,3V38.81z"/>
</g>
<g>
	<path class="st7" d="M124.65,39.31h-18c-0.28,0-0.5-0.22-0.5-0.5v-1c0-1.93,1.57-3.5,3.5-3.5h12c1.93,0,3.5,1.57,3.5,3.5v1
		C125.15,39.09,124.93,39.31,124.65,39.31z M107.15,38.31h17v-0.5c0-1.38-1.12-2.5-2.5-2.5h-12c-1.38,0-2.5,1.12-2.5,2.5V38.31z"/>
</g>
<g>
	<path class="st22" d="M119.65,38.81h-18v-1c0-1.66,1.34-3,3-3h12c1.66,0,3,1.34,3,3V38.81z"/>
</g>
<g>
	<path class="st7" d="M119.65,39.31h-18c-0.28,0-0.5-0.22-0.5-0.5v-1c0-1.93,1.57-3.5,3.5-3.5h12c1.93,0,3.5,1.57,3.5,3.5v1
		C120.15,39.09,119.93,39.31,119.65,39.31z M102.15,38.31h17v-0.5c0-1.38-1.12-2.5-2.5-2.5h-12c-1.38,0-2.5,1.12-2.5,2.5V38.31z"/>
</g>
<g>
	<path class="st7" d="M111.65,35.31c-0.13,0-0.26-0.05-0.35-0.15c-0.2-0.2-0.2-0.51,0-0.71l4-4c0.09-0.09,0.22-0.15,0.35-0.15h1.5
		v-3.5c0-0.28,0.22-0.5,0.5-0.5h1.79l2.85-2.85c0.2-0.2,0.51-0.2,0.71,0s0.2,0.51,0,0.71l-3,3c-0.09,0.09-0.22,0.15-0.35,0.15h-1.5
		v3.5c0,0.28-0.22,0.5-0.5,0.5h-1.79l-3.85,3.85C111.91,35.26,111.78,35.31,111.65,35.31z"/>
</g>
<g>
	<path class="st7" d="M111.65,35.31c-0.13,0-0.26-0.05-0.35-0.15l-3.85-3.85h-1.79c-0.28,0-0.5-0.22-0.5-0.5v-3.5h-1.5
		c-0.13,0-0.26-0.05-0.35-0.15l-3-3c-0.2-0.2-0.2-0.51,0-0.71s0.51-0.2,0.71,0l2.85,2.85h1.79c0.28,0,0.5,0.22,0.5,0.5v3.5h1.5
		c0.13,0,0.26,0.05,0.35,0.15l4,4c0.2,0.2,0.2,0.51,0,0.71C111.91,35.26,111.78,35.31,111.65,35.31z"/>
</g>
<g>
	<circle class="st23" cx="123.65" cy="22.81" r="1"/>
	<path class="st7" d="M123.65,24.31c-0.83,0-1.5-0.67-1.5-1.5s0.67-1.5,1.5-1.5s1.5,0.67,1.5,1.5S124.48,24.31,123.65,24.31z
		 M123.65,22.31c-0.28,0-0.5,0.22-0.5,0.5s0.22,0.5,0.5,0.5s0.5-0.22,0.5-0.5S123.93,22.31,123.65,22.31z"/>
</g>
<g>
	<circle class="st23" cx="99.65" cy="22.81" r="1"/>
	<path class="st7" d="M99.65,24.31c-0.83,0-1.5-0.67-1.5-1.5s0.67-1.5,1.5-1.5s1.5,0.67,1.5,1.5S100.48,24.31,99.65,24.31z
		 M99.65,22.31c-0.28,0-0.5,0.22-0.5,0.5s0.22,0.5,0.5,0.5s0.5-0.22,0.5-0.5S99.93,22.31,99.65,22.31z"/>
</g>
<g>
	<g>
		<defs>
			<rect id="SVGID_1_" x="77.65" y="42.81" width="64" height="46"/>
		</defs>
		<clipPath id="SVGID_2_">
			<use xlink:href="#SVGID_1_"  style="overflow:visible;"/>
		</clipPath>
		<path class="st24" d="M77.65,88.81h64H77.65z"/>
		<rect x="77.65" y="88.17" class="st24" width="64" height="0.65"/>
		<rect x="77.65" y="87.52" class="st25" width="64" height="0.65"/>
		<rect x="77.65" y="86.87" class="st26" width="64" height="0.65"/>
		<rect x="77.65" y="86.22" class="st27" width="64" height="0.65"/>
		<rect x="77.65" y="85.57" class="st28" width="64" height="0.65"/>
		<rect x="77.65" y="84.93" class="st29" width="64" height="0.65"/>
		<rect x="77.65" y="84.28" class="st30" width="64" height="0.65"/>
		<rect x="77.65" y="83.63" class="st31" width="64" height="0.65"/>
		<rect x="77.65" y="82.98" class="st32" width="64" height="0.65"/>
		<rect x="77.65" y="82.33" class="st33" width="64" height="0.65"/>
		<rect x="77.65" y="81.69" class="st34" width="64" height="0.65"/>
		<rect x="77.65" y="81.04" class="st35" width="64" height="0.65"/>
		<rect x="77.65" y="80.39" class="st36" width="64" height="0.65"/>
		<rect x="77.65" y="79.74" class="st37" width="64" height="0.65"/>
		<rect x="77.65" y="79.1" class="st38" width="64" height="0.65"/>
		<rect x="77.65" y="78.45" class="st39" width="64" height="0.65"/>
		<rect x="77.65" y="77.8" class="st40" width="64" height="0.65"/>
		<rect x="77.65" y="77.15" class="st41" width="64" height="0.65"/>
		<rect x="77.65" y="76.5" class="st42" width="64" height="0.65"/>
		<rect x="77.65" y="75.86" class="st43" width="64" height="0.65"/>
		<rect x="77.65" y="75.21" class="st44" width="64" height="0.65"/>
		<rect x="77.65" y="74.56" class="st45" width="64" height="0.65"/>
		<rect x="77.65" y="73.91" class="st45" width="64" height="0.65"/>
		<rect x="77.65" y="73.26" class="st46" width="64" height="0.65"/>
		<rect x="77.65" y="72.62" class="st47" width="64" height="0.65"/>
		<rect x="77.65" y="71.97" class="st48" width="64" height="0.65"/>
		<rect x="77.65" y="71.32" class="st49" width="64" height="0.65"/>
		<rect x="77.65" y="70.67" class="st50" width="64" height="0.65"/>
		<rect x="77.65" y="70.02" class="st51" width="64" height="0.65"/>
		<rect x="77.65" y="69.38" class="st52" width="64" height="0.65"/>
		<rect x="77.65" y="68.73" class="st53" width="64" height="0.65"/>
		<rect x="77.65" y="68.08" class="st54" width="64" height="0.65"/>
		<rect x="77.65" y="67.43" class="st55" width="64" height="0.65"/>
		<rect x="77.65" y="66.79" class="st56" width="64" height="0.65"/>
		<rect x="77.65" y="66.14" class="st57" width="64" height="0.65"/>
		<rect x="77.65" y="65.49" class="st58" width="64" height="0.65"/>
		<rect x="77.65" y="64.84" class="st59" width="64" height="0.65"/>
		<rect x="77.65" y="64.19" class="st60" width="64" height="0.65"/>
		<rect x="77.65" y="63.55" class="st61" width="64" height="0.65"/>
		<rect x="77.65" y="62.9" class="st62" width="64" height="0.65"/>
		<rect x="77.65" y="62.25" class="st62" width="64" height="0.65"/>
		<rect x="77.65" y="61.6" class="st63" width="64" height="0.65"/>
		<rect x="77.65" y="60.95" class="st64" width="64" height="0.65"/>
		<rect x="77.65" y="60.31" class="st65" width="64" height="0.65"/>
		<rect x="77.65" y="59.66" class="st66" width="64" height="0.65"/>
		<rect x="77.65" y="59.01" class="st67" width="64" height="0.65"/>
		<rect x="77.65" y="58.36" class="st68" width="64" height="0.65"/>
		<rect x="77.65" y="57.71" class="st69" width="64" height="0.65"/>
		<rect x="77.65" y="57.07" class="st70" width="64" height="0.65"/>
		<rect x="77.65" y="56.42" class="st71" width="64" height="0.65"/>
		<rect x="77.65" y="55.77" class="st72" width="64" height="0.65"/>
		<rect x="77.65" y="55.12" class="st72" width="64" height="0.65"/>
		<rect x="77.65" y="54.48" class="st73" width="64" height="0.65"/>
		<rect x="77.65" y="53.83" class="st74" width="64" height="0.65"/>
		<rect x="77.65" y="53.18" class="st74" width="64" height="0.65"/>
		<rect x="77.65" y="52.53" class="st75" width="64" height="0.65"/>
		<rect x="77.65" y="51.88" class="st76" width="64" height="0.65"/>
		<rect x="77.65" y="51.24" class="st76" width="64" height="0.65"/>
		<rect x="77.65" y="50.59" class="st77" width="64" height="0.65"/>
		<rect x="77.65" y="49.94" class="st78" width="64" height="0.65"/>
		<rect x="77.65" y="49.29" class="st79" width="64" height="0.65"/>
		<rect x="77.65" y="48.64" class="st80" width="64" height="0.65"/>
		<rect x="77.65" y="48" class="st80" width="64" height="0.65"/>
		<rect x="77.65" y="47.35" class="st81" width="64" height="0.65"/>
		<rect x="77.65" y="46.7" class="st82" width="64" height="0.65"/>
		<rect x="77.65" y="46.05" class="st82" width="64" height="0.65"/>
		<rect x="77.65" y="45.41" class="st83" width="64" height="0.65"/>
		<rect x="77.65" y="44.76" class="st84" width="64" height="0.65"/>
		<rect x="77.65" y="44.11" class="st85" width="64" height="0.65"/>
		<rect x="77.65" y="43.46" class="st86" width="64" height="0.65"/>
		<rect x="77.65" y="42.81" class="st87" width="64" height="0.65"/>
	</g>
</g>
<g>
	<path class="st88" d="M77.65,42.81v1v45h2v-42c0-1.1,0.9-2,2-2h60v-2H77.65z"/>
</g>
<g class="st20">
	<path class="st17" d="M154.24,48.81h-5.17c-0.27,0-0.52-0.11-0.71-0.29l-0.71-0.71h8l-0.71,0.71
		C154.76,48.71,154.5,48.81,154.24,48.81z"/>
</g>
<g class="st20">
	<path class="st17" d="M154.24,50.81h-5.17c-0.27,0-0.52-0.11-0.71-0.29l-0.71-0.71h8l-0.71,0.71
		C154.76,50.71,154.5,50.81,154.24,50.81z"/>
</g>
<g class="st20">
	<path class="st17" d="M154.24,52.81h-5.17c-0.27,0-0.52-0.11-0.71-0.29l-0.71-0.71h8l-0.71,0.71
		C154.76,52.71,154.5,52.81,154.24,52.81z"/>
</g>
<g class="st20">
	<path class="st17" d="M154.24,54.81h-5.17c-0.27,0-0.52-0.11-0.71-0.29l-0.71-0.71h8l-0.71,0.71
		C154.76,54.71,154.5,54.81,154.24,54.81z"/>
</g>
<g>
	<polygon class="st22" points="142.65,98.81 145.65,98.81 145.65,91.81 132.65,91.81 139.65,94.81 	"/>
</g>
<g>
	<polygon class="st22" points="76.65,98.81 73.65,98.81 73.65,91.81 86.65,91.81 79.65,94.81 	"/>
</g>
<g>
	<path class="st7" d="M145.65,99.31h-3c-0.19,0-0.36-0.11-0.45-0.28c-1.76-3.53-5.31-5.72-9.26-5.72H86.36
		c-3.95,0-7.5,2.19-9.26,5.72c-0.08,0.17-0.26,0.28-0.45,0.28h-3c-0.28,0-0.5-0.22-0.5-0.5v-58c0-1.38,1.12-2.5,2.5-2.5h68
		c1.38,0,2.5,1.12,2.5,2.5v58C146.15,99.09,145.93,99.31,145.65,99.31z M142.96,98.31h2.2v-57.5c0-0.83-0.67-1.5-1.5-1.5h-68
		c-0.83,0-1.5,0.67-1.5,1.5v57.5h2.2c1.98-3.71,5.79-6,10.01-6h46.58C137.17,92.31,140.98,94.6,142.96,98.31z"/>
</g>
<g>
	<defs>
		<rect id="SVGID_3_" x="77.65" y="42.81" width="64" height="46"/>
	</defs>
	<clipPath id="SVGID_4_">
		<use xlink:href="#SVGID_3_"  style="overflow:visible;"/>
	</clipPath>
	<g class="st89">
		<g>
			<path class="st90" d="M130.66,40.71L130.66,40.71c3.87-3.87,10.13-3.87,14,0l0,0l0,0C140.79,44.58,134.52,44.58,130.66,40.71
				L130.66,40.71z"/>
		</g>
		<g>
			<path class="st90" d="M130.66,54.71L130.66,54.71c3.87-3.87,10.13-3.87,14,0l0,0l0,0C140.79,58.58,134.52,58.58,130.66,54.71
				L130.66,54.71z"/>
		</g>
		<g>
			<path class="st90" d="M130.66,68.71L130.66,68.71c3.87-3.87,10.13-3.87,14,0l0,0l0,0C140.79,72.58,134.52,72.58,130.66,68.71
				L130.66,68.71z"/>
		</g>
		<g>
			<path class="st90" d="M130.66,82.71L130.66,82.71c3.87-3.87,10.13-3.87,14,0l0,0l0,0C140.79,86.58,134.52,86.58,130.66,82.71
				L130.66,82.71z"/>
		</g>
		<g>
			<path class="st90" d="M67.66,40.71L67.66,40.71c3.87-3.87,10.13-3.87,14,0l0,0l0,0C77.8,44.58,71.53,44.58,67.66,40.71
				L67.66,40.71z"/>
		</g>
		<g>
			<path class="st90" d="M67.66,54.71L67.66,54.71c3.87-3.87,10.13-3.87,14,0l0,0l0,0C77.8,58.58,71.53,58.58,67.66,54.71
				L67.66,54.71z"/>
		</g>
		<g>
			<path class="st90" d="M67.66,68.71L67.66,68.71c3.87-3.87,10.13-3.87,14,0l0,0l0,0C77.8,72.58,71.53,72.58,67.66,68.71
				L67.66,68.71z"/>
		</g>
		<g>
			<path class="st90" d="M67.66,82.71L67.66,82.71c3.87-3.87,10.13-3.87,14,0l0,0l0,0C77.8,86.58,71.53,86.58,67.66,82.71
				L67.66,82.71z"/>
		</g>
		<g>
			<path class="st90" d="M109.66,40.71L109.66,40.71c3.87-3.87,10.13-3.87,14,0l0,0l0,0C119.79,44.58,113.52,44.58,109.66,40.71
				L109.66,40.71z"/>
		</g>
		<g>
			<path class="st90" d="M109.66,54.71L109.66,54.71c3.87-3.87,10.13-3.87,14,0l0,0l0,0C119.79,58.58,113.52,58.58,109.66,54.71
				L109.66,54.71z"/>
		</g>
		<g>
			<path class="st90" d="M109.66,68.71L109.66,68.71c3.87-3.87,10.13-3.87,14,0l0,0l0,0C119.79,72.58,113.52,72.58,109.66,68.71
				L109.66,68.71z"/>
		</g>
		<g>
			<path class="st90" d="M109.66,82.71L109.66,82.71c3.87-3.87,10.13-3.87,14,0l0,0l0,0C119.79,86.58,113.52,86.58,109.66,82.71
				L109.66,82.71z"/>
		</g>
		<g>
			<path class="st90" d="M88.66,40.71L88.66,40.71c3.87-3.87,10.13-3.87,14,0l0,0l0,0C98.79,44.58,92.52,44.58,88.66,40.71
				L88.66,40.71z"/>
		</g>
		<g>
			<path class="st90" d="M88.66,54.71L88.66,54.71c3.87-3.87,10.13-3.87,14,0l0,0l0,0C98.79,58.58,92.52,58.58,88.66,54.71
				L88.66,54.71z"/>
		</g>
		<g>
			<path class="st90" d="M88.66,68.71L88.66,68.71c3.87-3.87,10.13-3.87,14,0l0,0l0,0C98.79,72.58,92.52,72.58,88.66,68.71
				L88.66,68.71z"/>
		</g>
		<g>
			<path class="st90" d="M88.66,82.71L88.66,82.71c3.87-3.87,10.13-3.87,14,0l0,0l0,0C98.79,86.58,92.52,86.58,88.66,82.71
				L88.66,82.71z"/>
		</g>
		<g>
			<path class="st91" d="M145.66,40.81c0,0.55-0.45,1-1,1c-0.64,0-1.25,0.25-1.71,0.71l-0.29,0.29l-3.29,3.29
				c-0.46,0.46-1.07,0.71-1.71,0.71s-1.25-0.25-1.71-0.71l-5.29-5.29l5.29-5.29c0.46-0.46,1.07-0.71,1.71-0.71s1.25,0.25,1.71,0.71
				l3.29,3.29l0.29,0.29c0.46,0.46,1.07,0.71,1.71,0.71C145.21,39.81,145.66,40.26,145.66,40.81z"/>
		</g>
		<g>
			<path class="st92" d="M151.66,40.81c-1.33,1.93-1.33,5.07,0,7l-5-5l-0.29-0.29c-0.46-0.46-1.07-0.71-1.71-0.71c0.55,0,1-0.45,1-1
				s-0.45-1-1-1c0.64,0,1.25-0.25,1.71-0.71l5.29-5.29C152.99,35.74,152.99,38.88,151.66,40.81z"/>
		</g>
		<g>
			<circle class="st5" cx="134.66" cy="40.81" r="2"/>
		</g>
		<g>
			<circle class="st93" cx="134.16" cy="40.81" r="0.5"/>
		</g>
		<g>
			<g>
				<path class="st92" d="M132.87,43.02l3.08,3.08c0.46,0.46,1.07,0.71,1.71,0.71s1.25-0.25,1.71-0.71l3.08-3.08
					C139.42,44.45,135.89,44.45,132.87,43.02z"/>
			</g>
			<g>
				<path class="st92" d="M142.45,38.6l-3.08-3.08c-0.46-0.46-1.07-0.71-1.71-0.71s-1.25,0.25-1.71,0.71l-3.08,3.08
					C135.89,37.18,139.42,37.18,142.45,38.6z"/>
			</g>
		</g>
		<g>
			<g>
				<path class="st94" d="M136.66,47.81c0,0.55,0.45,1,1,1c0.64,0,1.25,0.25,1.71,0.71l0.29,0.29l3.29,3.29
					c0.46,0.46,1.07,0.71,1.71,0.71s1.25-0.25,1.71-0.71l5.29-5.29l-5.29-5.29c-0.46-0.46-1.07-0.71-1.71-0.71s-1.25,0.25-1.71,0.71
					l-3.29,3.29l-0.29,0.29c-0.46,0.46-1.07,0.71-1.71,0.71C137.11,46.81,136.66,47.26,136.66,47.81z"/>
			</g>
			<g>
				<path class="st95" d="M130.66,47.81c1.33,1.93,1.33,5.07,0,7l5-5l0.29-0.29c0.46-0.46,1.07-0.71,1.71-0.71c-0.55,0-1-0.45-1-1
					s0.45-1,1-1c-0.64,0-1.25-0.25-1.71-0.71l-5.29-5.29C129.33,42.74,129.33,45.88,130.66,47.81z"/>
			</g>
			<g>
				<circle class="st5" cx="147.66" cy="47.81" r="2"/>
			</g>
			<g>
				<circle class="st94" cx="148.16" cy="47.81" r="0.5"/>
			</g>
			<g>
				<g>
					<path class="st95" d="M149.45,50.02l-3.08,3.08c-0.46,0.46-1.07,0.71-1.71,0.71s-1.25-0.25-1.71-0.71l-3.08-3.08
						C142.89,51.45,146.42,51.45,149.45,50.02z"/>
				</g>
				<g>
					<path class="st95" d="M139.87,45.6l3.08-3.08c0.46-0.46,1.07-0.71,1.71-0.71s1.25,0.25,1.71,0.71l3.08,3.08
						C146.42,44.18,142.89,44.18,139.87,45.6z"/>
				</g>
			</g>
		</g>
		<g>
			<path class="st91" d="M145.66,54.81c0,0.55-0.45,1-1,1c-0.64,0-1.25,0.25-1.71,0.71l-0.29,0.29l-3.29,3.29
				c-0.46,0.46-1.07,0.71-1.71,0.71s-1.25-0.25-1.71-0.71l-5.29-5.29l5.29-5.29c0.46-0.46,1.07-0.71,1.71-0.71s1.25,0.25,1.71,0.71
				l3.29,3.29l0.29,0.29c0.46,0.46,1.07,0.71,1.71,0.71C145.21,53.81,145.66,54.26,145.66,54.81z"/>
		</g>
		<g>
			<path class="st92" d="M151.66,54.81c-1.33,1.93-1.33,5.07,0,7l-5-5l-0.29-0.29c-0.46-0.46-1.07-0.71-1.71-0.71c0.55,0,1-0.45,1-1
				s-0.45-1-1-1c0.64,0,1.25-0.25,1.71-0.71l5.29-5.29C152.99,49.74,152.99,52.88,151.66,54.81z"/>
		</g>
		<g>
			<circle class="st5" cx="134.66" cy="54.81" r="2"/>
		</g>
		<g>
			<circle class="st93" cx="134.16" cy="54.81" r="0.5"/>
		</g>
		<g>
			<g>
				<path class="st92" d="M132.87,57.02l3.08,3.08c0.46,0.46,1.07,0.71,1.71,0.71s1.25-0.25,1.71-0.71l3.08-3.08
					C139.42,58.45,135.89,58.45,132.87,57.02z"/>
			</g>
			<g>
				<path class="st92" d="M142.45,52.6l-3.08-3.08c-0.46-0.46-1.07-0.71-1.71-0.71s-1.25,0.25-1.71,0.71l-3.08,3.08
					C135.89,51.18,139.42,51.18,142.45,52.6z"/>
			</g>
		</g>
		<g>
			<g>
				<path class="st94" d="M136.66,61.81c0,0.55,0.45,1,1,1c0.64,0,1.25,0.25,1.71,0.71l0.29,0.29l3.29,3.29
					c0.46,0.46,1.07,0.71,1.71,0.71s1.25-0.25,1.71-0.71l5.29-5.29l-5.29-5.29c-0.46-0.46-1.07-0.71-1.71-0.71s-1.25,0.25-1.71,0.71
					l-3.29,3.29l-0.29,0.29c-0.46,0.46-1.07,0.71-1.71,0.71C137.11,60.81,136.66,61.26,136.66,61.81z"/>
			</g>
			<g>
				<path class="st95" d="M130.66,61.81c1.33,1.93,1.33,5.07,0,7l5-5l0.29-0.29c0.46-0.46,1.07-0.71,1.71-0.71c-0.55,0-1-0.45-1-1
					s0.45-1,1-1c-0.64,0-1.25-0.25-1.71-0.71l-5.29-5.29C129.33,56.74,129.33,59.88,130.66,61.81z"/>
			</g>
			<g>
				<circle class="st5" cx="147.66" cy="61.81" r="2"/>
			</g>
			<g>
				<circle class="st94" cx="148.16" cy="61.81" r="0.5"/>
			</g>
			<g>
				<g>
					<path class="st95" d="M149.45,64.02l-3.08,3.08c-0.46,0.46-1.07,0.71-1.71,0.71s-1.25-0.25-1.71-0.71l-3.08-3.08
						C142.89,65.45,146.42,65.45,149.45,64.02z"/>
				</g>
				<g>
					<path class="st95" d="M139.87,59.6l3.08-3.08c0.46-0.46,1.07-0.71,1.71-0.71s1.25,0.25,1.71,0.71l3.08,3.08
						C146.42,58.18,142.89,58.18,139.87,59.6z"/>
				</g>
			</g>
		</g>
		<g>
			<path class="st91" d="M145.66,68.81c0,0.55-0.45,1-1,1c-0.64,0-1.25,0.25-1.71,0.71l-0.29,0.29l-3.29,3.29
				c-0.46,0.46-1.07,0.71-1.71,0.71s-1.25-0.25-1.71-0.71l-5.29-5.29l5.29-5.29c0.46-0.46,1.07-0.71,1.71-0.71s1.25,0.25,1.71,0.71
				l3.29,3.29l0.29,0.29c0.46,0.46,1.07,0.71,1.71,0.71C145.21,67.81,145.66,68.26,145.66,68.81z"/>
		</g>
		<g>
			<path class="st92" d="M151.66,68.81c-1.33,1.93-1.33,5.07,0,7l-5-5l-0.29-0.29c-0.46-0.46-1.07-0.71-1.71-0.71c0.55,0,1-0.45,1-1
				s-0.45-1-1-1c0.64,0,1.25-0.25,1.71-0.71l5.29-5.29C152.99,63.74,152.99,66.88,151.66,68.81z"/>
		</g>
		<g>
			<circle class="st5" cx="134.66" cy="68.81" r="2"/>
		</g>
		<g>
			<circle class="st93" cx="134.16" cy="68.81" r="0.5"/>
		</g>
		<g>
			<g>
				<path class="st92" d="M132.87,71.02l3.08,3.08c0.46,0.46,1.07,0.71,1.71,0.71s1.25-0.25,1.71-0.71l3.08-3.08
					C139.42,72.45,135.89,72.45,132.87,71.02z"/>
			</g>
			<g>
				<path class="st92" d="M142.45,66.6l-3.08-3.08c-0.46-0.46-1.07-0.71-1.71-0.71s-1.25,0.25-1.71,0.71l-3.08,3.08
					C135.89,65.18,139.42,65.18,142.45,66.6z"/>
			</g>
		</g>
		<g>
			<g>
				<path class="st94" d="M136.66,75.81c0,0.55,0.45,1,1,1c0.64,0,1.25,0.25,1.71,0.71l0.29,0.29l3.29,3.29
					c0.46,0.46,1.07,0.71,1.71,0.71s1.25-0.25,1.71-0.71l5.29-5.29l-5.29-5.29c-0.46-0.46-1.07-0.71-1.71-0.71s-1.25,0.25-1.71,0.71
					l-3.29,3.29l-0.29,0.29c-0.46,0.46-1.07,0.71-1.71,0.71C137.11,74.81,136.66,75.26,136.66,75.81z"/>
			</g>
			<g>
				<path class="st95" d="M130.66,75.81c1.33,1.93,1.33,5.07,0,7l5-5l0.29-0.29c0.46-0.46,1.07-0.71,1.71-0.71c-0.55,0-1-0.45-1-1
					s0.45-1,1-1c-0.64,0-1.25-0.25-1.71-0.71l-5.29-5.29C129.33,70.74,129.33,73.88,130.66,75.81z"/>
			</g>
			<g>
				<circle class="st5" cx="147.66" cy="75.81" r="2"/>
			</g>
			<g>
				<circle class="st94" cx="148.16" cy="75.81" r="0.5"/>
			</g>
			<g>
				<g>
					<path class="st95" d="M149.45,78.02l-3.08,3.08c-0.46,0.46-1.07,0.71-1.71,0.71s-1.25-0.25-1.71-0.71l-3.08-3.08
						C142.89,79.45,146.42,79.45,149.45,78.02z"/>
				</g>
				<g>
					<path class="st95" d="M139.87,73.6l3.08-3.08c0.46-0.46,1.07-0.71,1.71-0.71s1.25,0.25,1.71,0.71l3.08,3.08
						C146.42,72.18,142.89,72.18,139.87,73.6z"/>
				</g>
			</g>
		</g>
		<g>
			<path class="st91" d="M145.66,82.81c0,0.55-0.45,1-1,1c-0.64,0-1.25,0.25-1.71,0.71l-0.29,0.29l-3.29,3.29
				c-0.46,0.46-1.07,0.71-1.71,0.71s-1.25-0.25-1.71-0.71l-5.29-5.29l5.29-5.29c0.46-0.46,1.07-0.71,1.71-0.71s1.25,0.25,1.71,0.71
				l3.29,3.29l0.29,0.29c0.46,0.46,1.07,0.71,1.71,0.71C145.21,81.81,145.66,82.26,145.66,82.81z"/>
		</g>
		<g>
			<path class="st92" d="M151.66,82.81c-1.33,1.93-1.33,5.07,0,7l-5-5l-0.29-0.29c-0.46-0.46-1.07-0.71-1.71-0.71c0.55,0,1-0.45,1-1
				s-0.45-1-1-1c0.64,0,1.25-0.25,1.71-0.71l5.29-5.29C152.99,77.74,152.99,80.88,151.66,82.81z"/>
		</g>
		<g>
			<circle class="st5" cx="134.66" cy="82.81" r="2"/>
		</g>
		<g>
			<circle class="st93" cx="134.16" cy="82.81" r="0.5"/>
		</g>
		<g>
			<g>
				<path class="st92" d="M132.87,85.02l3.08,3.08c0.46,0.46,1.07,0.71,1.71,0.71s1.25-0.25,1.71-0.71l3.08-3.08
					C139.42,86.45,135.89,86.45,132.87,85.02z"/>
			</g>
			<g>
				<path class="st92" d="M142.45,80.6l-3.08-3.08c-0.46-0.46-1.07-0.71-1.71-0.71s-1.25,0.25-1.71,0.71l-3.08,3.08
					C135.89,79.18,139.42,79.18,142.45,80.6z"/>
			</g>
		</g>
		<g>
			<g>
				<path class="st94" d="M136.66,89.81c0,0.55,0.45,1,1,1c0.64,0,1.25,0.25,1.71,0.71l0.29,0.29l3.29,3.29
					c0.46,0.46,1.07,0.71,1.71,0.71s1.25-0.25,1.71-0.71l5.29-5.29l-5.29-5.29c-0.46-0.46-1.07-0.71-1.71-0.71s-1.25,0.25-1.71,0.71
					l-3.29,3.29l-0.29,0.29c-0.46,0.46-1.07,0.71-1.71,0.71C137.11,88.81,136.66,89.26,136.66,89.81z"/>
			</g>
			<g>
				<path class="st95" d="M130.66,89.81c1.33,1.93,1.33,5.07,0,7l5-5l0.29-0.29c0.46-0.46,1.07-0.71,1.71-0.71c-0.55,0-1-0.45-1-1
					s0.45-1,1-1c-0.64,0-1.25-0.25-1.71-0.71l-5.29-5.29C129.33,84.74,129.33,87.88,130.66,89.81z"/>
			</g>
			<g>
				<circle class="st5" cx="147.66" cy="89.81" r="2"/>
			</g>
			<g>
				<circle class="st94" cx="148.16" cy="89.81" r="0.5"/>
			</g>
			<g>
				<g>
					<path class="st95" d="M149.45,92.02l-3.08,3.08c-0.46,0.46-1.07,0.71-1.71,0.71s-1.25-0.25-1.71-0.71l-3.08-3.08
						C142.89,93.45,146.42,93.45,149.45,92.02z"/>
				</g>
				<g>
					<path class="st95" d="M139.87,87.6l3.08-3.08c0.46-0.46,1.07-0.71,1.71-0.71s1.25,0.25,1.71,0.71l3.08,3.08
						C146.42,86.18,142.89,86.18,139.87,87.6z"/>
				</g>
			</g>
		</g>
		<g>
			<path class="st91" d="M82.66,40.81c0,0.55-0.45,1-1,1c-0.64,0-1.25,0.25-1.71,0.71l-0.29,0.29l-3.29,3.29
				c-0.46,0.46-1.07,0.71-1.71,0.71s-1.25-0.25-1.71-0.71l-5.29-5.29l5.29-5.29c0.46-0.46,1.07-0.71,1.71-0.71s1.25,0.25,1.71,0.71
				l3.29,3.29l0.29,0.29c0.46,0.46,1.07,0.71,1.71,0.71C82.21,39.81,82.66,40.26,82.66,40.81z"/>
		</g>
		<g>
			<path class="st92" d="M88.66,40.81c-1.33,1.93-1.33,5.07,0,7l-5-5l-0.29-0.29c-0.46-0.46-1.07-0.71-1.71-0.71c0.55,0,1-0.45,1-1
				s-0.45-1-1-1c0.64,0,1.25-0.25,1.71-0.71l5.29-5.29C89.99,35.74,89.99,38.88,88.66,40.81z"/>
		</g>
		<g>
			<circle class="st5" cx="71.66" cy="40.81" r="2"/>
		</g>
		<g>
			<circle class="st93" cx="71.16" cy="40.81" r="0.5"/>
		</g>
		<g>
			<g>
				<path class="st92" d="M69.87,43.02l3.08,3.08c0.46,0.46,1.07,0.71,1.71,0.71s1.25-0.25,1.71-0.71l3.08-3.08
					C76.42,44.45,72.9,44.45,69.87,43.02z"/>
			</g>
			<g>
				<path class="st92" d="M79.45,38.6l-3.08-3.08c-0.46-0.46-1.07-0.71-1.71-0.71s-1.25,0.25-1.71,0.71l-3.08,3.08
					C72.9,37.18,76.42,37.18,79.45,38.6z"/>
			</g>
		</g>
		<g>
			<g>
				<path class="st94" d="M73.66,47.81c0,0.55,0.45,1,1,1c0.64,0,1.25,0.25,1.71,0.71l0.29,0.29l3.29,3.29
					c0.46,0.46,1.07,0.71,1.71,0.71s1.25-0.25,1.71-0.71l5.29-5.29l-5.29-5.29c-0.46-0.46-1.07-0.71-1.71-0.71s-1.25,0.25-1.71,0.71
					l-3.29,3.29l-0.29,0.29c-0.46,0.46-1.07,0.71-1.71,0.71C74.11,46.81,73.66,47.26,73.66,47.81z"/>
			</g>
			<g>
				<path class="st95" d="M67.66,47.81c1.33,1.93,1.33,5.07,0,7l5-5l0.29-0.29c0.46-0.46,1.07-0.71,1.71-0.71c-0.55,0-1-0.45-1-1
					s0.45-1,1-1c-0.64,0-1.25-0.25-1.71-0.71l-5.29-5.29C66.33,42.74,66.33,45.88,67.66,47.81z"/>
			</g>
			<g>
				<circle class="st5" cx="84.66" cy="47.81" r="2"/>
			</g>
			<g>
				<circle class="st94" cx="85.16" cy="47.81" r="0.5"/>
			</g>
			<g>
				<g>
					<path class="st95" d="M86.45,50.02l-3.08,3.08c-0.46,0.46-1.07,0.71-1.71,0.71s-1.25-0.25-1.71-0.71l-3.08-3.08
						C79.9,51.45,83.42,51.45,86.45,50.02z"/>
				</g>
				<g>
					<path class="st95" d="M76.87,45.6l3.08-3.08c0.46-0.46,1.07-0.71,1.71-0.71s1.25,0.25,1.71,0.71l3.08,3.08
						C83.42,44.18,79.9,44.18,76.87,45.6z"/>
				</g>
			</g>
		</g>
		<g>
			<path class="st91" d="M82.66,54.81c0,0.55-0.45,1-1,1c-0.64,0-1.25,0.25-1.71,0.71l-0.29,0.29l-3.29,3.29
				c-0.46,0.46-1.07,0.71-1.71,0.71s-1.25-0.25-1.71-0.71l-5.29-5.29l5.29-5.29c0.46-0.46,1.07-0.71,1.71-0.71s1.25,0.25,1.71,0.71
				l3.29,3.29l0.29,0.29c0.46,0.46,1.07,0.71,1.71,0.71C82.21,53.81,82.66,54.26,82.66,54.81z"/>
		</g>
		<g>
			<path class="st92" d="M88.66,54.81c-1.33,1.93-1.33,5.07,0,7l-5-5l-0.29-0.29c-0.46-0.46-1.07-0.71-1.71-0.71c0.55,0,1-0.45,1-1
				s-0.45-1-1-1c0.64,0,1.25-0.25,1.71-0.71l5.29-5.29C89.99,49.74,89.99,52.88,88.66,54.81z"/>
		</g>
		<g>
			<circle class="st5" cx="71.66" cy="54.81" r="2"/>
		</g>
		<g>
			<circle class="st93" cx="71.16" cy="54.81" r="0.5"/>
		</g>
		<g>
			<g>
				<path class="st92" d="M69.87,57.02l3.08,3.08c0.46,0.46,1.07,0.71,1.71,0.71s1.25-0.25,1.71-0.71l3.08-3.08
					C76.42,58.45,72.9,58.45,69.87,57.02z"/>
			</g>
			<g>
				<path class="st92" d="M79.45,52.6l-3.08-3.08c-0.46-0.46-1.07-0.71-1.71-0.71s-1.25,0.25-1.71,0.71l-3.08,3.08
					C72.9,51.18,76.42,51.18,79.45,52.6z"/>
			</g>
		</g>
		<g>
			<g>
				<path class="st94" d="M73.66,61.81c0,0.55,0.45,1,1,1c0.64,0,1.25,0.25,1.71,0.71l0.29,0.29l3.29,3.29
					c0.46,0.46,1.07,0.71,1.71,0.71s1.25-0.25,1.71-0.71l5.29-5.29l-5.29-5.29c-0.46-0.46-1.07-0.71-1.71-0.71s-1.25,0.25-1.71,0.71
					l-3.29,3.29l-0.29,0.29c-0.46,0.46-1.07,0.71-1.71,0.71C74.11,60.81,73.66,61.26,73.66,61.81z"/>
			</g>
			<g>
				<path class="st95" d="M67.66,61.81c1.33,1.93,1.33,5.07,0,7l5-5l0.29-0.29c0.46-0.46,1.07-0.71,1.71-0.71c-0.55,0-1-0.45-1-1
					s0.45-1,1-1c-0.64,0-1.25-0.25-1.71-0.71l-5.29-5.29C66.33,56.74,66.33,59.88,67.66,61.81z"/>
			</g>
			<g>
				<circle class="st5" cx="84.66" cy="61.81" r="2"/>
			</g>
			<g>
				<circle class="st94" cx="85.16" cy="61.81" r="0.5"/>
			</g>
			<g>
				<g>
					<path class="st95" d="M86.45,64.02l-3.08,3.08c-0.46,0.46-1.07,0.71-1.71,0.71s-1.25-0.25-1.71-0.71l-3.08-3.08
						C79.9,65.45,83.42,65.45,86.45,64.02z"/>
				</g>
				<g>
					<path class="st95" d="M76.87,59.6l3.08-3.08c0.46-0.46,1.07-0.71,1.71-0.71s1.25,0.25,1.71,0.71l3.08,3.08
						C83.42,58.18,79.9,58.18,76.87,59.6z"/>
				</g>
			</g>
		</g>
		<g>
			<path class="st91" d="M82.66,68.81c0,0.55-0.45,1-1,1c-0.64,0-1.25,0.25-1.71,0.71l-0.29,0.29l-3.29,3.29
				c-0.46,0.46-1.07,0.71-1.71,0.71s-1.25-0.25-1.71-0.71l-5.29-5.29l5.29-5.29c0.46-0.46,1.07-0.71,1.71-0.71s1.25,0.25,1.71,0.71
				l3.29,3.29l0.29,0.29c0.46,0.46,1.07,0.71,1.71,0.71C82.21,67.81,82.66,68.26,82.66,68.81z"/>
		</g>
		<g>
			<path class="st92" d="M88.66,68.81c-1.33,1.93-1.33,5.07,0,7l-5-5l-0.29-0.29c-0.46-0.46-1.07-0.71-1.71-0.71c0.55,0,1-0.45,1-1
				s-0.45-1-1-1c0.64,0,1.25-0.25,1.71-0.71l5.29-5.29C89.99,63.74,89.99,66.88,88.66,68.81z"/>
		</g>
		<g>
			<circle class="st5" cx="71.66" cy="68.81" r="2"/>
		</g>
		<g>
			<circle class="st93" cx="71.16" cy="68.81" r="0.5"/>
		</g>
		<g>
			<g>
				<path class="st92" d="M69.87,71.02l3.08,3.08c0.46,0.46,1.07,0.71,1.71,0.71s1.25-0.25,1.71-0.71l3.08-3.08
					C76.42,72.45,72.9,72.45,69.87,71.02z"/>
			</g>
			<g>
				<path class="st92" d="M79.45,66.6l-3.08-3.08c-0.46-0.46-1.07-0.71-1.71-0.71s-1.25,0.25-1.71,0.71l-3.08,3.08
					C72.9,65.18,76.42,65.18,79.45,66.6z"/>
			</g>
		</g>
		<g>
			<g>
				<path class="st94" d="M73.66,75.81c0,0.55,0.45,1,1,1c0.64,0,1.25,0.25,1.71,0.71l0.29,0.29l3.29,3.29
					c0.46,0.46,1.07,0.71,1.71,0.71s1.25-0.25,1.71-0.71l5.29-5.29l-5.29-5.29c-0.46-0.46-1.07-0.71-1.71-0.71s-1.25,0.25-1.71,0.71
					l-3.29,3.29l-0.29,0.29c-0.46,0.46-1.07,0.71-1.71,0.71C74.11,74.81,73.66,75.26,73.66,75.81z"/>
			</g>
			<g>
				<path class="st95" d="M67.66,75.81c1.33,1.93,1.33,5.07,0,7l5-5l0.29-0.29c0.46-0.46,1.07-0.71,1.71-0.71c-0.55,0-1-0.45-1-1
					s0.45-1,1-1c-0.64,0-1.25-0.25-1.71-0.71l-5.29-5.29C66.33,70.74,66.33,73.88,67.66,75.81z"/>
			</g>
			<g>
				<circle class="st5" cx="84.66" cy="75.81" r="2"/>
			</g>
			<g>
				<circle class="st94" cx="85.16" cy="75.81" r="0.5"/>
			</g>
			<g>
				<g>
					<path class="st95" d="M86.45,78.02l-3.08,3.08c-0.46,0.46-1.07,0.71-1.71,0.71s-1.25-0.25-1.71-0.71l-3.08-3.08
						C79.9,79.45,83.42,79.45,86.45,78.02z"/>
				</g>
				<g>
					<path class="st95" d="M76.87,73.6l3.08-3.08c0.46-0.46,1.07-0.71,1.71-0.71s1.25,0.25,1.71,0.71l3.08,3.08
						C83.42,72.18,79.9,72.18,76.87,73.6z"/>
				</g>
			</g>
		</g>
		<g>
			<path class="st91" d="M82.66,82.81c0,0.55-0.45,1-1,1c-0.64,0-1.25,0.25-1.71,0.71l-0.29,0.29l-3.29,3.29
				c-0.46,0.46-1.07,0.71-1.71,0.71s-1.25-0.25-1.71-0.71l-5.29-5.29l5.29-5.29c0.46-0.46,1.07-0.71,1.71-0.71s1.25,0.25,1.71,0.71
				l3.29,3.29l0.29,0.29c0.46,0.46,1.07,0.71,1.71,0.71C82.21,81.81,82.66,82.26,82.66,82.81z"/>
		</g>
		<g>
			<path class="st92" d="M88.66,82.81c-1.33,1.93-1.33,5.07,0,7l-5-5l-0.29-0.29c-0.46-0.46-1.07-0.71-1.71-0.71c0.55,0,1-0.45,1-1
				s-0.45-1-1-1c0.64,0,1.25-0.25,1.71-0.71l5.29-5.29C89.99,77.74,89.99,80.88,88.66,82.81z"/>
		</g>
		<g>
			<circle class="st5" cx="71.66" cy="82.81" r="2"/>
		</g>
		<g>
			<circle class="st93" cx="71.16" cy="82.81" r="0.5"/>
		</g>
		<g>
			<g>
				<path class="st92" d="M69.87,85.02l3.08,3.08c0.46,0.46,1.07,0.71,1.71,0.71s1.25-0.25,1.71-0.71l3.08-3.08
					C76.42,86.45,72.9,86.45,69.87,85.02z"/>
			</g>
			<g>
				<path class="st92" d="M79.45,80.6l-3.08-3.08c-0.46-0.46-1.07-0.71-1.71-0.71s-1.25,0.25-1.71,0.71l-3.08,3.08
					C72.9,79.18,76.42,79.18,79.45,80.6z"/>
			</g>
		</g>
		<g>
			<g>
				<path class="st94" d="M73.66,89.81c0,0.55,0.45,1,1,1c0.64,0,1.25,0.25,1.71,0.71l0.29,0.29l3.29,3.29
					c0.46,0.46,1.07,0.71,1.71,0.71s1.25-0.25,1.71-0.71l5.29-5.29l-5.29-5.29c-0.46-0.46-1.07-0.71-1.71-0.71s-1.25,0.25-1.71,0.71
					l-3.29,3.29l-0.29,0.29c-0.46,0.46-1.07,0.71-1.71,0.71C74.11,88.81,73.66,89.26,73.66,89.81z"/>
			</g>
			<g>
				<path class="st95" d="M67.66,89.81c1.33,1.93,1.33,5.07,0,7l5-5l0.29-0.29c0.46-0.46,1.07-0.71,1.71-0.71c-0.55,0-1-0.45-1-1
					s0.45-1,1-1c-0.64,0-1.25-0.25-1.71-0.71l-5.29-5.29C66.33,84.74,66.33,87.88,67.66,89.81z"/>
			</g>
			<g>
				<circle class="st5" cx="84.66" cy="89.81" r="2"/>
			</g>
			<g>
				<circle class="st94" cx="85.16" cy="89.81" r="0.5"/>
			</g>
			<g>
				<g>
					<path class="st95" d="M86.45,92.02l-3.08,3.08c-0.46,0.46-1.07,0.71-1.71,0.71s-1.25-0.25-1.71-0.71l-3.08-3.08
						C79.9,93.45,83.42,93.45,86.45,92.02z"/>
				</g>
				<g>
					<path class="st95" d="M76.87,87.6l3.08-3.08c0.46-0.46,1.07-0.71,1.71-0.71s1.25,0.25,1.71,0.71l3.08,3.08
						C83.42,86.18,79.9,86.18,76.87,87.6z"/>
				</g>
			</g>
		</g>
		<g>
			<path class="st91" d="M124.66,40.81c0,0.55-0.45,1-1,1c-0.64,0-1.25,0.25-1.71,0.71l-0.29,0.29l-3.29,3.29
				c-0.46,0.46-1.07,0.71-1.71,0.71s-1.25-0.25-1.71-0.71l-5.29-5.29l5.29-5.29c0.46-0.46,1.07-0.71,1.71-0.71s1.25,0.25,1.71,0.71
				l3.29,3.29l0.29,0.29c0.46,0.46,1.07,0.71,1.71,0.71C124.21,39.81,124.66,40.26,124.66,40.81z"/>
		</g>
		<g>
			<path class="st92" d="M130.66,40.81c-1.33,1.93-1.33,5.07,0,7l-5-5l-0.29-0.29c-0.46-0.46-1.07-0.71-1.71-0.71c0.55,0,1-0.45,1-1
				s-0.45-1-1-1c0.64,0,1.25-0.25,1.71-0.71l5.29-5.29C131.99,35.74,131.99,38.88,130.66,40.81z"/>
		</g>
		<g>
			<circle class="st5" cx="113.66" cy="40.81" r="2"/>
		</g>
		<g>
			<circle class="st93" cx="113.16" cy="40.81" r="0.5"/>
		</g>
		<g>
			<g>
				<path class="st92" d="M111.87,43.02l3.08,3.08c0.46,0.46,1.07,0.71,1.71,0.71s1.25-0.25,1.71-0.71l3.08-3.08
					C118.42,44.45,114.89,44.45,111.87,43.02z"/>
			</g>
			<g>
				<path class="st92" d="M121.45,38.6l-3.08-3.08c-0.46-0.46-1.07-0.71-1.71-0.71s-1.25,0.25-1.71,0.71l-3.08,3.08
					C114.89,37.18,118.42,37.18,121.45,38.6z"/>
			</g>
		</g>
		<g>
			<g>
				<path class="st94" d="M115.66,47.81c0,0.55,0.45,1,1,1c0.64,0,1.25,0.25,1.71,0.71l0.29,0.29l3.29,3.29
					c0.46,0.46,1.07,0.71,1.71,0.71s1.25-0.25,1.71-0.71l5.29-5.29l-5.29-5.29c-0.46-0.46-1.07-0.71-1.71-0.71s-1.25,0.25-1.71,0.71
					l-3.29,3.29l-0.29,0.29c-0.46,0.46-1.07,0.71-1.71,0.71C116.11,46.81,115.66,47.26,115.66,47.81z"/>
			</g>
			<g>
				<path class="st95" d="M109.66,47.81c1.33,1.93,1.33,5.07,0,7l5-5l0.29-0.29c0.46-0.46,1.07-0.71,1.71-0.71c-0.55,0-1-0.45-1-1
					s0.45-1,1-1c-0.64,0-1.25-0.25-1.71-0.71l-5.29-5.29C108.33,42.74,108.33,45.88,109.66,47.81z"/>
			</g>
			<g>
				<circle class="st5" cx="126.66" cy="47.81" r="2"/>
			</g>
			<g>
				<circle class="st94" cx="127.16" cy="47.81" r="0.5"/>
			</g>
			<g>
				<g>
					<path class="st95" d="M128.45,50.02l-3.08,3.08c-0.46,0.46-1.07,0.71-1.71,0.71s-1.25-0.25-1.71-0.71l-3.08-3.08
						C121.89,51.45,125.42,51.45,128.45,50.02z"/>
				</g>
				<g>
					<path class="st95" d="M118.87,45.6l3.08-3.08c0.46-0.46,1.07-0.71,1.71-0.71s1.25,0.25,1.71,0.71l3.08,3.08
						C125.42,44.18,121.89,44.18,118.87,45.6z"/>
				</g>
			</g>
		</g>
		<g>
			<path class="st91" d="M124.66,54.81c0,0.55-0.45,1-1,1c-0.64,0-1.25,0.25-1.71,0.71l-0.29,0.29l-3.29,3.29
				c-0.46,0.46-1.07,0.71-1.71,0.71s-1.25-0.25-1.71-0.71l-5.29-5.29l5.29-5.29c0.46-0.46,1.07-0.71,1.71-0.71s1.25,0.25,1.71,0.71
				l3.29,3.29l0.29,0.29c0.46,0.46,1.07,0.71,1.71,0.71C124.21,53.81,124.66,54.26,124.66,54.81z"/>
		</g>
		<g>
			<path class="st92" d="M130.66,54.81c-1.33,1.93-1.33,5.07,0,7l-5-5l-0.29-0.29c-0.46-0.46-1.07-0.71-1.71-0.71c0.55,0,1-0.45,1-1
				s-0.45-1-1-1c0.64,0,1.25-0.25,1.71-0.71l5.29-5.29C131.99,49.74,131.99,52.88,130.66,54.81z"/>
		</g>
		<g>
			<circle class="st5" cx="113.66" cy="54.81" r="2"/>
		</g>
		<g>
			<circle class="st93" cx="113.16" cy="54.81" r="0.5"/>
		</g>
		<g>
			<g>
				<path class="st92" d="M111.87,57.02l3.08,3.08c0.46,0.46,1.07,0.71,1.71,0.71s1.25-0.25,1.71-0.71l3.08-3.08
					C118.42,58.45,114.89,58.45,111.87,57.02z"/>
			</g>
			<g>
				<path class="st92" d="M121.45,52.6l-3.08-3.08c-0.46-0.46-1.07-0.71-1.71-0.71s-1.25,0.25-1.71,0.71l-3.08,3.08
					C114.89,51.18,118.42,51.18,121.45,52.6z"/>
			</g>
		</g>
		<g>
			<g>
				<path class="st94" d="M115.66,61.81c0,0.55,0.45,1,1,1c0.64,0,1.25,0.25,1.71,0.71l0.29,0.29l3.29,3.29
					c0.46,0.46,1.07,0.71,1.71,0.71s1.25-0.25,1.71-0.71l5.29-5.29l-5.29-5.29c-0.46-0.46-1.07-0.71-1.71-0.71s-1.25,0.25-1.71,0.71
					l-3.29,3.29l-0.29,0.29c-0.46,0.46-1.07,0.71-1.71,0.71C116.11,60.81,115.66,61.26,115.66,61.81z"/>
			</g>
			<g>
				<path class="st95" d="M109.66,61.81c1.33,1.93,1.33,5.07,0,7l5-5l0.29-0.29c0.46-0.46,1.07-0.71,1.71-0.71c-0.55,0-1-0.45-1-1
					s0.45-1,1-1c-0.64,0-1.25-0.25-1.71-0.71l-5.29-5.29C108.33,56.74,108.33,59.88,109.66,61.81z"/>
			</g>
			<g>
				<circle class="st5" cx="126.66" cy="61.81" r="2"/>
			</g>
			<g>
				<circle class="st94" cx="127.16" cy="61.81" r="0.5"/>
			</g>
			<g>
				<g>
					<path class="st95" d="M128.45,64.02l-3.08,3.08c-0.46,0.46-1.07,0.71-1.71,0.71s-1.25-0.25-1.71-0.71l-3.08-3.08
						C121.89,65.45,125.42,65.45,128.45,64.02z"/>
				</g>
				<g>
					<path class="st95" d="M118.87,59.6l3.08-3.08c0.46-0.46,1.07-0.71,1.71-0.71s1.25,0.25,1.71,0.71l3.08,3.08
						C125.42,58.18,121.89,58.18,118.87,59.6z"/>
				</g>
			</g>
		</g>
		<g>
			<path class="st91" d="M124.66,68.81c0,0.55-0.45,1-1,1c-0.64,0-1.25,0.25-1.71,0.71l-0.29,0.29l-3.29,3.29
				c-0.46,0.46-1.07,0.71-1.71,0.71s-1.25-0.25-1.71-0.71l-5.29-5.29l5.29-5.29c0.46-0.46,1.07-0.71,1.71-0.71s1.25,0.25,1.71,0.71
				l3.29,3.29l0.29,0.29c0.46,0.46,1.07,0.71,1.71,0.71C124.21,67.81,124.66,68.26,124.66,68.81z"/>
		</g>
		<g>
			<path class="st92" d="M130.66,68.81c-1.33,1.93-1.33,5.07,0,7l-5-5l-0.29-0.29c-0.46-0.46-1.07-0.71-1.71-0.71c0.55,0,1-0.45,1-1
				s-0.45-1-1-1c0.64,0,1.25-0.25,1.71-0.71l5.29-5.29C131.99,63.74,131.99,66.88,130.66,68.81z"/>
		</g>
		<g>
			<circle class="st5" cx="113.66" cy="68.81" r="2"/>
		</g>
		<g>
			<circle class="st93" cx="113.16" cy="68.81" r="0.5"/>
		</g>
		<g>
			<g>
				<path class="st92" d="M111.87,71.02l3.08,3.08c0.46,0.46,1.07,0.71,1.71,0.71s1.25-0.25,1.71-0.71l3.08-3.08
					C118.42,72.45,114.89,72.45,111.87,71.02z"/>
			</g>
			<g>
				<path class="st92" d="M121.45,66.6l-3.08-3.08c-0.46-0.46-1.07-0.71-1.71-0.71s-1.25,0.25-1.71,0.71l-3.08,3.08
					C114.89,65.18,118.42,65.18,121.45,66.6z"/>
			</g>
		</g>
		<g>
			<g>
				<path class="st94" d="M115.66,75.81c0,0.55,0.45,1,1,1c0.64,0,1.25,0.25,1.71,0.71l0.29,0.29l3.29,3.29
					c0.46,0.46,1.07,0.71,1.71,0.71s1.25-0.25,1.71-0.71l5.29-5.29l-5.29-5.29c-0.46-0.46-1.07-0.71-1.71-0.71s-1.25,0.25-1.71,0.71
					l-3.29,3.29l-0.29,0.29c-0.46,0.46-1.07,0.71-1.71,0.71C116.11,74.81,115.66,75.26,115.66,75.81z"/>
			</g>
			<g>
				<path class="st95" d="M109.66,75.81c1.33,1.93,1.33,5.07,0,7l5-5l0.29-0.29c0.46-0.46,1.07-0.71,1.71-0.71c-0.55,0-1-0.45-1-1
					s0.45-1,1-1c-0.64,0-1.25-0.25-1.71-0.71l-5.29-5.29C108.33,70.74,108.33,73.88,109.66,75.81z"/>
			</g>
			<g>
				<circle class="st5" cx="126.66" cy="75.81" r="2"/>
			</g>
			<g>
				<circle class="st94" cx="127.16" cy="75.81" r="0.5"/>
			</g>
			<g>
				<g>
					<path class="st95" d="M128.45,78.02l-3.08,3.08c-0.46,0.46-1.07,0.71-1.71,0.71s-1.25-0.25-1.71-0.71l-3.08-3.08
						C121.89,79.45,125.42,79.45,128.45,78.02z"/>
				</g>
				<g>
					<path class="st95" d="M118.87,73.6l3.08-3.08c0.46-0.46,1.07-0.71,1.71-0.71s1.25,0.25,1.71,0.71l3.08,3.08
						C125.42,72.18,121.89,72.18,118.87,73.6z"/>
				</g>
			</g>
		</g>
		<g>
			<path class="st91" d="M124.66,82.81c0,0.55-0.45,1-1,1c-0.64,0-1.25,0.25-1.71,0.71l-0.29,0.29l-3.29,3.29
				c-0.46,0.46-1.07,0.71-1.71,0.71s-1.25-0.25-1.71-0.71l-5.29-5.29l5.29-5.29c0.46-0.46,1.07-0.71,1.71-0.71s1.25,0.25,1.71,0.71
				l3.29,3.29l0.29,0.29c0.46,0.46,1.07,0.71,1.71,0.71C124.21,81.81,124.66,82.26,124.66,82.81z"/>
		</g>
		<g>
			<path class="st92" d="M130.66,82.81c-1.33,1.93-1.33,5.07,0,7l-5-5l-0.29-0.29c-0.46-0.46-1.07-0.71-1.71-0.71c0.55,0,1-0.45,1-1
				s-0.45-1-1-1c0.64,0,1.25-0.25,1.71-0.71l5.29-5.29C131.99,77.74,131.99,80.88,130.66,82.81z"/>
		</g>
		<g>
			<circle class="st5" cx="113.66" cy="82.81" r="2"/>
		</g>
		<g>
			<circle class="st93" cx="113.16" cy="82.81" r="0.5"/>
		</g>
		<g>
			<g>
				<path class="st92" d="M111.87,85.02l3.08,3.08c0.46,0.46,1.07,0.71,1.71,0.71s1.25-0.25,1.71-0.71l3.08-3.08
					C118.42,86.45,114.89,86.45,111.87,85.02z"/>
			</g>
			<g>
				<path class="st92" d="M121.45,80.6l-3.08-3.08c-0.46-0.46-1.07-0.71-1.71-0.71s-1.25,0.25-1.71,0.71l-3.08,3.08
					C114.89,79.18,118.42,79.18,121.45,80.6z"/>
			</g>
		</g>
		<g>
			<g>
				<path class="st94" d="M115.66,89.81c0,0.55,0.45,1,1,1c0.64,0,1.25,0.25,1.71,0.71l0.29,0.29l3.29,3.29
					c0.46,0.46,1.07,0.71,1.71,0.71s1.25-0.25,1.71-0.71l5.29-5.29l-5.29-5.29c-0.46-0.46-1.07-0.71-1.71-0.71s-1.25,0.25-1.71,0.71
					l-3.29,3.29l-0.29,0.29c-0.46,0.46-1.07,0.71-1.71,0.71C116.11,88.81,115.66,89.26,115.66,89.81z"/>
			</g>
			<g>
				<path class="st95" d="M109.66,89.81c1.33,1.93,1.33,5.07,0,7l5-5l0.29-0.29c0.46-0.46,1.07-0.71,1.71-0.71c-0.55,0-1-0.45-1-1
					s0.45-1,1-1c-0.64,0-1.25-0.25-1.71-0.71l-5.29-5.29C108.33,84.74,108.33,87.88,109.66,89.81z"/>
			</g>
			<g>
				<circle class="st5" cx="126.66" cy="89.81" r="2"/>
			</g>
			<g>
				<circle class="st94" cx="127.16" cy="89.81" r="0.5"/>
			</g>
			<g>
				<g>
					<path class="st95" d="M128.45,92.02l-3.08,3.08c-0.46,0.46-1.07,0.71-1.71,0.71s-1.25-0.25-1.71-0.71l-3.08-3.08
						C121.89,93.45,125.42,93.45,128.45,92.02z"/>
				</g>
				<g>
					<path class="st95" d="M118.87,87.6l3.08-3.08c0.46-0.46,1.07-0.71,1.71-0.71s1.25,0.25,1.71,0.71l3.08,3.08
						C125.42,86.18,121.89,86.18,118.87,87.6z"/>
				</g>
			</g>
		</g>
		<g>
			<path class="st91" d="M103.66,40.81c0,0.55-0.45,1-1,1c-0.64,0-1.25,0.25-1.71,0.71l-0.29,0.29l-3.29,3.29
				c-0.46,0.46-1.07,0.71-1.71,0.71s-1.25-0.25-1.71-0.71l-5.29-5.29l5.29-5.29c0.46-0.46,1.07-0.71,1.71-0.71s1.25,0.25,1.71,0.71
				l3.29,3.29l0.29,0.29c0.46,0.46,1.07,0.71,1.71,0.71C103.21,39.81,103.66,40.26,103.66,40.81z"/>
		</g>
		<g>
			<path class="st92" d="M109.66,40.81c-1.33,1.93-1.33,5.07,0,7l-5-5l-0.29-0.29c-0.46-0.46-1.07-0.71-1.71-0.71c0.55,0,1-0.45,1-1
				s-0.45-1-1-1c0.64,0,1.25-0.25,1.71-0.71l5.29-5.29C110.99,35.74,110.99,38.88,109.66,40.81z"/>
		</g>
		<g>
			<circle class="st5" cx="92.66" cy="40.81" r="2"/>
		</g>
		<g>
			<circle class="st93" cx="92.16" cy="40.81" r="0.5"/>
		</g>
		<g>
			<g>
				<path class="st92" d="M90.87,43.02l3.08,3.08c0.46,0.46,1.07,0.71,1.71,0.71s1.25-0.25,1.71-0.71l3.08-3.08
					C97.42,44.45,93.9,44.45,90.87,43.02z"/>
			</g>
			<g>
				<path class="st92" d="M100.45,38.6l-3.08-3.08c-0.46-0.46-1.07-0.71-1.71-0.71s-1.25,0.25-1.71,0.71l-3.08,3.08
					C93.9,37.18,97.42,37.18,100.45,38.6z"/>
			</g>
		</g>
		<g>
			<g>
				<path class="st94" d="M94.66,47.81c0,0.55,0.45,1,1,1c0.64,0,1.25,0.25,1.71,0.71l0.29,0.29l3.29,3.29
					c0.46,0.46,1.07,0.71,1.71,0.71s1.25-0.25,1.71-0.71l5.29-5.29l-5.29-5.29c-0.46-0.46-1.07-0.71-1.71-0.71s-1.25,0.25-1.71,0.71
					l-3.29,3.29l-0.29,0.29c-0.46,0.46-1.07,0.71-1.71,0.71C95.11,46.81,94.66,47.26,94.66,47.81z"/>
			</g>
			<g>
				<path class="st95" d="M88.66,47.81c1.33,1.93,1.33,5.07,0,7l5-5l0.29-0.29c0.46-0.46,1.07-0.71,1.71-0.71c-0.55,0-1-0.45-1-1
					s0.45-1,1-1c-0.64,0-1.25-0.25-1.71-0.71l-5.29-5.29C87.33,42.74,87.33,45.88,88.66,47.81z"/>
			</g>
			<g>
				<circle class="st5" cx="105.66" cy="47.81" r="2"/>
			</g>
			<g>
				<circle class="st94" cx="106.16" cy="47.81" r="0.5"/>
			</g>
			<g>
				<g>
					<path class="st95" d="M107.45,50.02l-3.08,3.08c-0.46,0.46-1.07,0.71-1.71,0.71s-1.25-0.25-1.71-0.71l-3.08-3.08
						C100.9,51.45,104.42,51.45,107.45,50.02z"/>
				</g>
				<g>
					<path class="st95" d="M97.87,45.6l3.08-3.08c0.46-0.46,1.07-0.71,1.71-0.71s1.25,0.25,1.71,0.71l3.08,3.08
						C104.42,44.18,100.9,44.18,97.87,45.6z"/>
				</g>
			</g>
		</g>
		<g>
			<path class="st91" d="M103.66,54.81c0,0.55-0.45,1-1,1c-0.64,0-1.25,0.25-1.71,0.71l-0.29,0.29l-3.29,3.29
				c-0.46,0.46-1.07,0.71-1.71,0.71s-1.25-0.25-1.71-0.71l-5.29-5.29l5.29-5.29c0.46-0.46,1.07-0.71,1.71-0.71s1.25,0.25,1.71,0.71
				l3.29,3.29l0.29,0.29c0.46,0.46,1.07,0.71,1.71,0.71C103.21,53.81,103.66,54.26,103.66,54.81z"/>
		</g>
		<g>
			<path class="st92" d="M109.66,54.81c-1.33,1.93-1.33,5.07,0,7l-5-5l-0.29-0.29c-0.46-0.46-1.07-0.71-1.71-0.71c0.55,0,1-0.45,1-1
				s-0.45-1-1-1c0.64,0,1.25-0.25,1.71-0.71l5.29-5.29C110.99,49.74,110.99,52.88,109.66,54.81z"/>
		</g>
		<g>
			<circle class="st5" cx="92.66" cy="54.81" r="2"/>
		</g>
		<g>
			<circle class="st93" cx="92.16" cy="54.81" r="0.5"/>
		</g>
		<g>
			<g>
				<path class="st92" d="M90.87,57.02l3.08,3.08c0.46,0.46,1.07,0.71,1.71,0.71s1.25-0.25,1.71-0.71l3.08-3.08
					C97.42,58.45,93.9,58.45,90.87,57.02z"/>
			</g>
			<g>
				<path class="st92" d="M100.45,52.6l-3.08-3.08c-0.46-0.46-1.07-0.71-1.71-0.71s-1.25,0.25-1.71,0.71l-3.08,3.08
					C93.9,51.18,97.42,51.18,100.45,52.6z"/>
			</g>
		</g>
		<g>
			<g>
				<path class="st94" d="M94.66,61.81c0,0.55,0.45,1,1,1c0.64,0,1.25,0.25,1.71,0.71l0.29,0.29l3.29,3.29
					c0.46,0.46,1.07,0.71,1.71,0.71s1.25-0.25,1.71-0.71l5.29-5.29l-5.29-5.29c-0.46-0.46-1.07-0.71-1.71-0.71s-1.25,0.25-1.71,0.71
					l-3.29,3.29l-0.29,0.29c-0.46,0.46-1.07,0.71-1.71,0.71C95.11,60.81,94.66,61.26,94.66,61.81z"/>
			</g>
			<g>
				<path class="st95" d="M88.66,61.81c1.33,1.93,1.33,5.07,0,7l5-5l0.29-0.29c0.46-0.46,1.07-0.71,1.71-0.71c-0.55,0-1-0.45-1-1
					s0.45-1,1-1c-0.64,0-1.25-0.25-1.71-0.71l-5.29-5.29C87.33,56.74,87.33,59.88,88.66,61.81z"/>
			</g>
			<g>
				<circle class="st5" cx="105.66" cy="61.81" r="2"/>
			</g>
			<g>
				<circle class="st94" cx="106.16" cy="61.81" r="0.5"/>
			</g>
			<g>
				<g>
					<path class="st95" d="M107.45,64.02l-3.08,3.08c-0.46,0.46-1.07,0.71-1.71,0.71s-1.25-0.25-1.71-0.71l-3.08-3.08
						C100.9,65.45,104.42,65.45,107.45,64.02z"/>
				</g>
				<g>
					<path class="st95" d="M97.87,59.6l3.08-3.08c0.46-0.46,1.07-0.71,1.71-0.71s1.25,0.25,1.71,0.71l3.08,3.08
						C104.42,58.18,100.9,58.18,97.87,59.6z"/>
				</g>
			</g>
		</g>
		<g>
			<path class="st91" d="M103.66,68.81c0,0.55-0.45,1-1,1c-0.64,0-1.25,0.25-1.71,0.71l-0.29,0.29l-3.29,3.29
				c-0.46,0.46-1.07,0.71-1.71,0.71s-1.25-0.25-1.71-0.71l-5.29-5.29l5.29-5.29c0.46-0.46,1.07-0.71,1.71-0.71s1.25,0.25,1.71,0.71
				l3.29,3.29l0.29,0.29c0.46,0.46,1.07,0.71,1.71,0.71C103.21,67.81,103.66,68.26,103.66,68.81z"/>
		</g>
		<g>
			<path class="st92" d="M109.66,68.81c-1.33,1.93-1.33,5.07,0,7l-5-5l-0.29-0.29c-0.46-0.46-1.07-0.71-1.71-0.71c0.55,0,1-0.45,1-1
				s-0.45-1-1-1c0.64,0,1.25-0.25,1.71-0.71l5.29-5.29C110.99,63.74,110.99,66.88,109.66,68.81z"/>
		</g>
		<g>
			<circle class="st5" cx="92.66" cy="68.81" r="2"/>
		</g>
		<g>
			<circle class="st93" cx="92.16" cy="68.81" r="0.5"/>
		</g>
		<g>
			<g>
				<path class="st92" d="M90.87,71.02l3.08,3.08c0.46,0.46,1.07,0.71,1.71,0.71s1.25-0.25,1.71-0.71l3.08-3.08
					C97.42,72.45,93.9,72.45,90.87,71.02z"/>
			</g>
			<g>
				<path class="st92" d="M100.45,66.6l-3.08-3.08c-0.46-0.46-1.07-0.71-1.71-0.71s-1.25,0.25-1.71,0.71l-3.08,3.08
					C93.9,65.18,97.42,65.18,100.45,66.6z"/>
			</g>
		</g>
		<g>
			<g>
				<path class="st94" d="M94.66,75.81c0,0.55,0.45,1,1,1c0.64,0,1.25,0.25,1.71,0.71l0.29,0.29l3.29,3.29
					c0.46,0.46,1.07,0.71,1.71,0.71s1.25-0.25,1.71-0.71l5.29-5.29l-5.29-5.29c-0.46-0.46-1.07-0.71-1.71-0.71s-1.25,0.25-1.71,0.71
					l-3.29,3.29l-0.29,0.29c-0.46,0.46-1.07,0.71-1.71,0.71C95.11,74.81,94.66,75.26,94.66,75.81z"/>
			</g>
			<g>
				<path class="st95" d="M88.66,75.81c1.33,1.93,1.33,5.07,0,7l5-5l0.29-0.29c0.46-0.46,1.07-0.71,1.71-0.71c-0.55,0-1-0.45-1-1
					s0.45-1,1-1c-0.64,0-1.25-0.25-1.71-0.71l-5.29-5.29C87.33,70.74,87.33,73.88,88.66,75.81z"/>
			</g>
			<g>
				<circle class="st5" cx="105.66" cy="75.81" r="2"/>
			</g>
			<g>
				<circle class="st94" cx="106.16" cy="75.81" r="0.5"/>
			</g>
			<g>
				<g>
					<path class="st95" d="M107.45,78.02l-3.08,3.08c-0.46,0.46-1.07,0.71-1.71,0.71s-1.25-0.25-1.71-0.71l-3.08-3.08
						C100.9,79.45,104.42,79.45,107.45,78.02z"/>
				</g>
				<g>
					<path class="st95" d="M97.87,73.6l3.08-3.08c0.46-0.46,1.07-0.71,1.71-0.71s1.25,0.25,1.71,0.71l3.08,3.08
						C104.42,72.18,100.9,72.18,97.87,73.6z"/>
				</g>
			</g>
		</g>
		<g>
			<path class="st91" d="M103.66,82.81c0,0.55-0.45,1-1,1c-0.64,0-1.25,0.25-1.71,0.71l-0.29,0.29l-3.29,3.29
				c-0.46,0.46-1.07,0.71-1.71,0.71s-1.25-0.25-1.71-0.71l-5.29-5.29l5.29-5.29c0.46-0.46,1.07-0.71,1.71-0.71s1.25,0.25,1.71,0.71
				l3.29,3.29l0.29,0.29c0.46,0.46,1.07,0.71,1.71,0.71C103.21,81.81,103.66,82.26,103.66,82.81z"/>
		</g>
		<g>
			<path class="st92" d="M109.66,82.81c-1.33,1.93-1.33,5.07,0,7l-5-5l-0.29-0.29c-0.46-0.46-1.07-0.71-1.71-0.71c0.55,0,1-0.45,1-1
				s-0.45-1-1-1c0.64,0,1.25-0.25,1.71-0.71l5.29-5.29C110.99,77.74,110.99,80.88,109.66,82.81z"/>
		</g>
		<g>
			<circle class="st5" cx="92.66" cy="82.81" r="2"/>
		</g>
		<g>
			<circle class="st93" cx="92.16" cy="82.81" r="0.5"/>
		</g>
		<g>
			<g>
				<path class="st92" d="M90.87,85.02l3.08,3.08c0.46,0.46,1.07,0.71,1.71,0.71s1.25-0.25,1.71-0.71l3.08-3.08
					C97.42,86.45,93.9,86.45,90.87,85.02z"/>
			</g>
			<g>
				<path class="st92" d="M100.45,80.6l-3.08-3.08c-0.46-0.46-1.07-0.71-1.71-0.71s-1.25,0.25-1.71,0.71l-3.08,3.08
					C93.9,79.18,97.42,79.18,100.45,80.6z"/>
			</g>
		</g>
		<g>
			<g>
				<path class="st94" d="M94.66,89.81c0,0.55,0.45,1,1,1c0.64,0,1.25,0.25,1.71,0.71l0.29,0.29l3.29,3.29
					c0.46,0.46,1.07,0.71,1.71,0.71s1.25-0.25,1.71-0.71l5.29-5.29l-5.29-5.29c-0.46-0.46-1.07-0.71-1.71-0.71s-1.25,0.25-1.71,0.71
					l-3.29,3.29l-0.29,0.29c-0.46,0.46-1.07,0.71-1.71,0.71C95.11,88.81,94.66,89.26,94.66,89.81z"/>
			</g>
			<g>
				<path class="st95" d="M88.66,89.81c1.33,1.93,1.33,5.07,0,7l5-5l0.29-0.29c0.46-0.46,1.07-0.71,1.71-0.71c-0.55,0-1-0.45-1-1
					s0.45-1,1-1c-0.64,0-1.25-0.25-1.71-0.71l-5.29-5.29C87.33,84.74,87.33,87.88,88.66,89.81z"/>
			</g>
			<g>
				<circle class="st5" cx="105.66" cy="89.81" r="2"/>
			</g>
			<g>
				<circle class="st94" cx="106.16" cy="89.81" r="0.5"/>
			</g>
			<g>
				<g>
					<path class="st95" d="M107.45,92.02l-3.08,3.08c-0.46,0.46-1.07,0.71-1.71,0.71s-1.25-0.25-1.71-0.71l-3.08-3.08
						C100.9,93.45,104.42,93.45,107.45,92.02z"/>
				</g>
				<g>
					<path class="st95" d="M97.87,87.6l3.08-3.08c0.46-0.46,1.07-0.71,1.71-0.71s1.25,0.25,1.71,0.71l3.08,3.08
						C104.42,86.18,100.9,86.18,97.87,87.6z"/>
				</g>
			</g>
		</g>
	</g>
</g>
<g class="st96">
	<g>
		<path class="st95" d="M133.65,42.31h-45c-0.28,0-0.5-0.22-0.5-0.5s0.22-0.5,0.5-0.5h45c0.28,0,0.5,0.22,0.5,0.5
			S133.93,42.31,133.65,42.31z"/>
	</g>
	<g>
		<path class="st95" d="M76.65,78.31c-0.28,0-0.5-0.22-0.5-0.5v-24c0-0.28,0.22-0.5,0.5-0.5s0.5,0.22,0.5,0.5v24
			C77.15,78.09,76.93,78.31,76.65,78.31z"/>
	</g>
	<g>
		<path class="st95" d="M130.65,90.31h-39c-0.28,0-0.5-0.22-0.5-0.5s0.22-0.5,0.5-0.5h39c0.28,0,0.5,0.22,0.5,0.5
			S130.93,90.31,130.65,90.31z"/>
	</g>
	<g>
		<path class="st95" d="M142.65,79.31c-0.28,0-0.5-0.22-0.5-0.5v-27c0-0.28,0.22-0.5,0.5-0.5s0.5,0.22,0.5,0.5v27
			C143.15,79.09,142.93,79.31,142.65,79.31z"/>
	</g>
</g>
<g class="st10">
	<g>
		<path class="st95" d="M123.65,42.31h-25c-0.28,0-0.5-0.22-0.5-0.5s0.22-0.5,0.5-0.5h25c0.28,0,0.5,0.22,0.5,0.5
			S123.93,42.31,123.65,42.31z"/>
	</g>
	<g>
		<path class="st95" d="M76.65,69.31c-0.28,0-0.5-0.22-0.5-0.5v-9c0-0.28,0.22-0.5,0.5-0.5s0.5,0.22,0.5,0.5v9
			C77.15,69.09,76.93,69.31,76.65,69.31z"/>
	</g>
	<g>
		<path class="st95" d="M120.65,90.31h-19c-0.28,0-0.5-0.22-0.5-0.5s0.22-0.5,0.5-0.5h19c0.28,0,0.5,0.22,0.5,0.5
			S120.93,90.31,120.65,90.31z"/>
	</g>
	<g>
		<path class="st95" d="M142.65,70.31c-0.28,0-0.5-0.22-0.5-0.5v-12c0-0.28,0.22-0.5,0.5-0.5s0.5,0.22,0.5,0.5v12
			C143.15,70.09,142.93,70.31,142.65,70.31z"/>
	</g>
</g>
<g>
	<path class="st7" d="M169.65,99.31h-151c-0.28,0-0.5-0.22-0.5-0.5s0.22-0.5,0.5-0.5h151c0.28,0,0.5,0.22,0.5,0.5
		S169.93,99.31,169.65,99.31z"/>
</g>
<g class="st20">
	<g>
		<path class="st95" d="M118.65,42.31h-5c-0.28,0-0.5-0.22-0.5-0.5s0.22-0.5,0.5-0.5h5c0.28,0,0.5,0.22,0.5,0.5
			S118.93,42.31,118.65,42.31z"/>
	</g>
	<g>
		<path class="st95" d="M109.78,42.29h-6c-0.28,0-0.5-0.22-0.5-0.5s0.22-0.5,0.5-0.5h6c0.28,0,0.5,0.22,0.5,0.5
			S110.05,42.29,109.78,42.29z"/>
	</g>
	<g>
		<path class="st95" d="M76.65,67.31c-0.28,0-0.5-0.22-0.5-0.5v-4c0-0.28,0.22-0.5,0.5-0.5s0.5,0.22,0.5,0.5v4
			C77.15,67.09,76.93,67.31,76.65,67.31z"/>
	</g>
	<g>
		<path class="st95" d="M115.65,90.31h-10c-0.28,0-0.5-0.22-0.5-0.5s0.22-0.5,0.5-0.5h10c0.28,0,0.5,0.22,0.5,0.5
			S115.93,90.31,115.65,90.31z"/>
	</g>
	<g>
		<path class="st95" d="M142.65,68.31c-0.28,0-0.5-0.22-0.5-0.5v-1c0-0.28,0.22-0.5,0.5-0.5s0.5,0.22,0.5,0.5v1
			C143.15,68.09,142.93,68.31,142.65,68.31z"/>
	</g>
	<g>
		<path class="st95" d="M142.65,63.31c-0.28,0-0.5-0.22-0.5-0.5v-3c0-0.28,0.22-0.5,0.5-0.5s0.5,0.22,0.5,0.5v3
			C143.15,63.09,142.93,63.31,142.65,63.31z"/>
	</g>
</g>
<g class="st97">
	<g>
		<rect x="77.65" y="43.81" class="st94" width="64" height="1"/>
	</g>
	<g id="XMLID_1_">
		<rect x="77.65" y="45.81" class="st94" width="64" height="1"/>
	</g>
	<g id="XMLID_2_">
		<rect x="77.65" y="47.81" class="st94" width="64" height="1"/>
	</g>
	<g id="XMLID_3_">
		<rect x="77.65" y="49.81" class="st94" width="64" height="1"/>
	</g>
	<g id="XMLID_4_">
		<rect x="77.65" y="51.81" class="st94" width="64" height="1"/>
	</g>
	<g id="XMLID_5_">
		<rect x="77.65" y="53.81" class="st94" width="64" height="1"/>
	</g>
	<g id="XMLID_6_">
		<rect x="77.65" y="55.81" class="st94" width="64" height="1"/>
	</g>
	<g id="XMLID_7_">
		<rect x="77.65" y="57.81" class="st94" width="64" height="1"/>
	</g>
	<g id="XMLID_8_">
		<rect x="77.65" y="59.81" class="st94" width="64" height="1"/>
	</g>
	<g id="XMLID_9_">
		<rect x="77.65" y="61.81" class="st94" width="64" height="1"/>
	</g>
	<g id="XMLID_10_">
		<rect x="77.65" y="63.81" class="st94" width="64" height="1"/>
	</g>
	<g id="XMLID_11_">
		<rect x="77.65" y="65.81" class="st94" width="64" height="1"/>
	</g>
	<g id="XMLID_12_">
		<rect x="77.65" y="67.81" class="st94" width="64" height="1"/>
	</g>
	<g id="XMLID_13_">
		<rect x="77.65" y="69.81" class="st94" width="64" height="1"/>
	</g>
	<g id="XMLID_14_">
		<rect x="77.65" y="71.81" class="st94" width="64" height="1"/>
	</g>
	<g id="XMLID_15_">
		<rect x="77.65" y="73.81" class="st94" width="64" height="1"/>
	</g>
	<g id="XMLID_16_">
		<rect x="77.65" y="75.81" class="st94" width="64" height="1"/>
	</g>
	<g id="XMLID_17_">
		<rect x="77.65" y="77.81" class="st94" width="64" height="1"/>
	</g>
	<g id="XMLID_18_">
		<rect x="77.65" y="79.81" class="st94" width="64" height="1"/>
	</g>
	<g id="XMLID_19_">
		<rect x="77.65" y="81.81" class="st94" width="64" height="1"/>
	</g>
	<g id="XMLID_20_">
		<rect x="77.65" y="83.81" class="st94" width="64" height="1"/>
	</g>
	<g id="XMLID_21_">
		<rect x="77.65" y="85.81" class="st94" width="64" height="1"/>
	</g>
	<g id="XMLID_22_">
		<rect x="77.65" y="87.81" class="st94" width="64" height="1"/>
	</g>
</g>
<g>
	<path class="st7" d="M140.65,89.31h-62c-0.83,0-1.5-0.67-1.5-1.5v-44c0-0.83,0.67-1.5,1.5-1.5h62c0.83,0,1.5,0.67,1.5,1.5v44
		C142.15,88.64,141.48,89.31,140.65,89.31z M78.65,43.31c-0.28,0-0.5,0.22-0.5,0.5v44c0,0.28,0.22,0.5,0.5,0.5h62
		c0.28,0,0.5-0.22,0.5-0.5v-44c0-0.28-0.22-0.5-0.5-0.5H78.65z"/>
</g>
<g class="st16">
	<g>
		<path class="st17" d="M153.65,84.81c-1.38,0-2.5-1.12-2.5-2.5c0-0.28,0.22-0.5,0.5-0.5s0.5,0.22,0.5,0.5c0,0.83,0.67,1.5,1.5,1.5
			c0.28,0,0.5,0.22,0.5,0.5S153.93,84.81,153.65,84.81z"/>
	</g>
</g>
<g class="st16">
	<g>
		<path class="st18" d="M148.65,84.31c-0.28,0-0.5-0.22-0.5-0.5v-10c0-1.93,1.57-3.5,3.5-3.5c0.28,0,0.5,0.22,0.5,0.5
			s-0.22,0.5-0.5,0.5c-1.38,0-2.5,1.12-2.5,2.5v10C149.15,84.09,148.93,84.31,148.65,84.31z"/>
	</g>
</g>
<g>
	<path class="st7" d="M151.65,86.31c-1.38,0-2.5-1.12-2.5-2.5v-10c0-1.38,1.12-2.5,2.5-2.5s2.5,1.12,2.5,2.5v10
		C154.15,85.19,153.03,86.31,151.65,86.31z M151.65,72.31c-0.83,0-1.5,0.67-1.5,1.5v10c0,0.83,0.67,1.5,1.5,1.5s1.5-0.67,1.5-1.5
		v-10C153.15,72.99,152.48,72.31,151.65,72.31z"/>
</g>
<g>
	<path class="st7" d="M161.15,89.31h-3.5c-0.28,0-0.5-0.22-0.5-0.5s0.22-0.5,0.5-0.5h3.5c1.65,0,3-1.35,3-3s-1.35-3-3-3h-9.5
		c-0.28,0-0.5-0.22-0.5-0.5s0.22-0.5,0.5-0.5h9.5c2.21,0,4,1.79,4,4S163.36,89.31,161.15,89.31z"/>
</g>
<g class="st16">
	<path class="st18" d="M155.65,47.81h-8c0,0,0-0.22,0-0.5l0,0c0-0.28,0.22-0.5,0.5-0.5h7c0.28,0,0.5,0.22,0.5,0.5l0,0
		C155.65,47.59,155.65,47.81,155.65,47.81z"/>
</g>
<g class="st16">
	<path class="st18" d="M155.65,49.81h-8c0,0,0-0.22,0-0.5l0,0c0-0.28,0.22-0.5,0.5-0.5h7c0.28,0,0.5,0.22,0.5,0.5l0,0
		C155.65,49.59,155.65,49.81,155.65,49.81z"/>
</g>
<g class="st16">
	<path class="st18" d="M155.65,51.81h-8c0,0,0-0.22,0-0.5l0,0c0-0.28,0.22-0.5,0.5-0.5h7c0.28,0,0.5,0.22,0.5,0.5l0,0
		C155.65,51.59,155.65,51.81,155.65,51.81z"/>
</g>
<g class="st16">
	<path class="st18" d="M155.65,53.81h-8c0,0,0-0.22,0-0.5l0,0c0-0.28,0.22-0.5,0.5-0.5h7c0.28,0,0.5,0.22,0.5,0.5l0,0
		C155.65,53.59,155.65,53.81,155.65,53.81z"/>
</g>
<g>
	<path class="st7" d="M151.65,76.81c-0.55,0-1,0.45-1,1h2C152.65,77.26,152.21,76.81,151.65,76.81z"/>
</g>
<g class="st20">
	<circle class="st17" cx="151.65" cy="74.81" r="1"/>
</g>
<g>
	<path class="st7" d="M151.65,73.81c-0.55,0-1,0.45-1,1h2C152.65,74.26,152.21,73.81,151.65,73.81z"/>
</g>
<g>
	<circle class="st5" cx="36.65" cy="71.81" r="1"/>
</g>
<g>
	<circle class="st5" cx="38.15" cy="74.31" r="0.5"/>
</g>
<g>
	<path class="st7" d="M50.65,79.31c-0.15,0-0.29-0.06-0.39-0.19c-0.17-0.22-0.14-0.53,0.08-0.7l5-4c0.22-0.17,0.53-0.14,0.7,0.08
		c0.17,0.22,0.14,0.53-0.08,0.7l-5,4C50.87,79.28,50.76,79.31,50.65,79.31z"/>
</g>
<g>
	<path class="st7" d="M55.65,85.31c-0.11,0-0.22-0.04-0.31-0.11l-5-4c-0.22-0.17-0.25-0.49-0.08-0.7c0.17-0.21,0.49-0.25,0.7-0.08
		l5,4c0.22,0.17,0.25,0.49,0.08,0.7C55.95,85.25,55.8,85.31,55.65,85.31z"/>
</g>
<g>
	<path class="st7" d="M34.65,79.31c-0.1,0-0.19-0.03-0.28-0.08l-6-4c-0.23-0.15-0.29-0.46-0.14-0.69c0.15-0.23,0.46-0.29,0.69-0.14
		l6,4c0.23,0.15,0.29,0.46,0.14,0.69C34.97,79.24,34.81,79.31,34.65,79.31z"/>
</g>
<g>
	<path class="st7" d="M28.65,85.31c-0.16,0-0.32-0.08-0.42-0.22c-0.15-0.23-0.09-0.54,0.14-0.69l6-4c0.23-0.15,0.54-0.09,0.69,0.14
		c0.15,0.23,0.09,0.54-0.14,0.69l-6,4C28.85,85.29,28.75,85.31,28.65,85.31z"/>
</g>
<g>
	<circle class="st5" cx="46.65" cy="71.81" r="1"/>
</g>
<g>
	<circle class="st5" cx="48.15" cy="74.31" r="0.5"/>
</g>
<g class="st9">
	<circle class="st5" cx="43.52" cy="77.31" r="0.5"/>
</g>
<g>
	<rect x="41.65" y="97.81" class="st7" width="2" height="1"/>
</g>
<g class="st8">
	<path class="st5" d="M41.65,96.31c-0.28,0-0.5-0.22-0.5-0.5v-6c0-0.28,0.22-0.5,0.5-0.5s0.5,0.22,0.5,0.5v6
		C42.15,96.09,41.93,96.31,41.65,96.31z"/>
</g>
<g class="st9">
	<path class="st5" d="M41.65,94.31c-0.28,0-0.5-0.22-0.5-0.5v-2c0-0.28,0.22-0.5,0.5-0.5s0.5,0.22,0.5,0.5v2
		C42.15,94.09,41.93,94.31,41.65,94.31z"/>
</g>
<g>
	<path class="st98" d="M39.65,64.81h0.59c0.91,0,1.77,0.36,2.41,1l0,0h1v-3h-4V64.81z"/>
</g>
<g>
	<path class="st7" d="M41.65,63.31c-0.28,0-0.5-0.22-0.5-0.5v-19.5c0-2.21,1.79-4,4-4s4,1.79,4,4v10c0,1.65,1.35,3,3,3s3-1.35,3-3
		v-6c0-2.21,1.79-4,4-4s4,1.79,4,4c0,1.65,1.35,3,3,3h7.5c0.28,0,0.5,0.22,0.5,0.5s-0.22,0.5-0.5,0.5h-7.5c-2.21,0-4-1.79-4-4
		c0-1.65-1.35-3-3-3s-3,1.35-3,3v6c0,2.21-1.79,4-4,4s-4-1.79-4-4v-10c0-1.65-1.35-3-3-3s-3,1.35-3,3v19.5
		C42.15,63.09,41.93,63.31,41.65,63.31z"/>
</g>
<g>
	<rect x="40.65" y="58.81" class="st98" width="2" height="4"/>
</g>
<g>
	<rect x="40.65" y="58.81" class="st15" width="1" height="4"/>
</g>
<g>
	<path class="st15" d="M41.65,62.81h-2v2h0.59c0.49,0,0.97,0.12,1.41,0.32V62.81z"/>
</g>
<g>
	<path class="st7" d="M42.65,63.31h-2c-0.28,0-0.5-0.22-0.5-0.5v-4c0-0.28,0.22-0.5,0.5-0.5h2c0.28,0,0.5,0.22,0.5,0.5v4
		C43.15,63.09,42.93,63.31,42.65,63.31z M41.15,62.31h1v-3h-1V62.31z"/>
</g>
<g>
	<path class="st7" d="M43.65,66.31h-1c-0.13,0-0.26-0.05-0.35-0.15c-0.55-0.55-1.28-0.85-2.06-0.85h-0.59c-0.28,0-0.5-0.22-0.5-0.5
		v-2c0-0.28,0.22-0.5,0.5-0.5h4c0.28,0,0.5,0.22,0.5,0.5v3C44.15,66.09,43.93,66.31,43.65,66.31z M42.85,65.31h0.3v-2h-3v1h0.09
		C41.21,64.31,42.13,64.67,42.85,65.31z"/>
</g>
</svg>
